<?xml version="1.0" encoding="UTF-8" standalone="no"?>
<!-- Created with Inkscape (http://www.inkscape.org/) -->

<svg
   width="240.26459mm"
   height="225.2652mm"
   viewBox="0 0 240.26458 225.2652"
   version="1.1"
   id="svg1"
   xml:space="preserve"
   inkscape:version="1.4.2 (f4327f4, 2025-05-13)"
   sodipodi:docname="core_H(hitler).svg"
   xmlns:inkscape="http://www.inkscape.org/namespaces/inkscape"
   xmlns:sodipodi="http://sodipodi.sourceforge.net/DTD/sodipodi-0.dtd"
   xmlns="http://www.w3.org/2000/svg"
   xmlns:svg="http://www.w3.org/2000/svg"><sodipodi:namedview
     id="namedview1"
     pagecolor="#505050"
     bordercolor="#eeeeee"
     borderopacity="1"
     inkscape:showpageshadow="0"
     inkscape:pageopacity="0"
     inkscape:pagecheckerboard="0"
     inkscape:deskcolor="#505050"
     inkscape:document-units="mm"
     inkscape:zoom="0.57292982"
     inkscape:cx="481.73439"
     inkscape:cy="519.26081"
     inkscape:window-width="1920"
     inkscape:window-height="1009"
     inkscape:window-x="-8"
     inkscape:window-y="-8"
     inkscape:window-maximized="1"
     inkscape:current-layer="layer1" /><defs
     id="defs1"><marker
       id="DistanceX"
       orient="auto"
       refX="0"
       refY="0"
       style="overflow:visible"><path
         d="M 3,-3 -3,3 M 0,-5 V 5"
         style="stroke:#000000;stroke-width:0.5"
         id="path1" /></marker><pattern
       id="Hatch"
       patternUnits="userSpaceOnUse"
       width="8"
       height="8"
       x="0"
       y="0"><path
         d="M8 4 l-4,4"
         stroke="#000000"
         stroke-width="0.25"
         linecap="square"
         id="path2" /><path
         d="M6 2 l-4,4"
         stroke="#000000"
         stroke-width="0.25"
         linecap="square"
         id="path3" /><path
         d="M4 0 l-4,4"
         stroke="#000000"
         stroke-width="0.25"
         linecap="square"
         id="path4" /></pattern><symbol
       id="*MODEL_SPACE" /><symbol
       id="*PAPER_SPACE" /></defs><g
     inkscape:label="Layer 1"
     inkscape:groupmode="layer"
     id="layer1"
     transform="translate(36.031569,-63.626399)"><path
       d="m -15.833119,283.75859 a 0.066146,0.066146 0 0 0 -0.132292,0 0.066146,0.066146 0 0 0 0.132292,0 z"
       style="fill:none;stroke:#000000;stroke-width:0.5;stroke-dasharray:none"
       id="path5" /><path
       d="m 84.166881,183.75859 a 0.066146,0.066146 0 0 0 -0.132292,0 0.066146,0.066146 0 0 0 0.132292,0 z"
       style="fill:none;stroke:#000000;stroke-width:0.5;stroke-dasharray:none"
       id="path6" /><path
       d="m -15.833119,83.758589 a 0.066146,0.066146 0 0 0 -0.132292,0 0.066146,0.066146 0 0 0 0.132292,0 z"
       style="fill:none;stroke:#000000;stroke-width:0.5;stroke-dasharray:none"
       id="path7" /><path
       d="m 184.16688,83.758589 a 0.06614583,0.06614583 0 0 0 -0.13229,0 0.06614583,0.06614583 0 0 0 0.13229,0 z"
       style="fill:none;stroke:#000000;stroke-width:0.5;stroke-dasharray:none"
       id="path8" /><path
       style="fill:none;stroke:#000000;stroke-width:0.5;stroke-dasharray:0.94490203,0.47245102;stroke-dashoffset:0"
       d="M -15.899265,283.75867 H 184.10086"
       id="path9" /><path
       style="fill:none;stroke:#000000;stroke-width:0.5;stroke-dasharray:0.94490203,0.47245102;stroke-dashoffset:0"
       d="M 184.10086,283.75867 V 83.758544"
       id="path10" /><path
       style="fill:none;stroke:#000000;stroke-width:0.5;stroke-dasharray:0.94490203,0.47245102;stroke-dashoffset:0"
       d="M 184.10086,83.758544 H -15.899265"
       id="path11" /><path
       style="fill:none;stroke:#000000;stroke-width:0.5;stroke-dasharray:0.94490203,0.47245102;stroke-dashoffset:0"
       d="M -15.899265,83.758544 V 283.75867"
       id="path12" /><path
       d="m -10.899265,83.758589 a 5,5 0 0 0 -10,0 5,5 0 0 0 10,0 z"
       style="fill:none;stroke:#ff0000;stroke-width:0.5;stroke-opacity:1;stroke-dasharray:none"
       id="path13" /><path
       style="fill:none;stroke:#000000;stroke-width:0.5;stroke-dasharray:none"
       d="M -10.899275,83.758544 V 88.75864"
       id="path14" /><path
       style="fill:none;stroke:#ff0000;stroke-width:0.5;stroke-opacity:1;stroke-dasharray:none"
       d="M -20.899255,83.758544 V 283.75867"
       id="path15" /><path
       style="fill:none;stroke:#000000;stroke-width:0.5;stroke-dasharray:0.94490203,0.47245102;stroke-dashoffset:0"
       d="M -15.899265,83.758544 184.10086,283.75867"
       id="path16" /><path
       d="m 94.100733,183.75859 a 10,10 0 0 0 -19.999999,0 10,10 0 0 0 19.999999,0 z"
       style="fill:none;stroke:#000000;stroke-width:0.5;stroke-dasharray:0.94490203,0.47245102;stroke-dashoffset:0"
       id="path17" /><path
       d="m -0.89926529,88.758589 a 5,5 0 0 0 -9.99999971,0 5,5 0 0 0 9.99999971,0 z"
       style="fill:none;stroke:#ff0000;stroke-width:0.5;stroke-opacity:1;stroke-dasharray:none"
       id="path18" /><path
       style="fill:none;stroke:#ff0000;stroke-width:0.5;stroke-opacity:1;stroke-dasharray:none"
       d="M -5.8992587,93.758471 H 74.100607"
       id="path19" /><path
       style="fill:none;stroke:#000000;stroke-width:0.5;stroke-dasharray:0.94490203,0.47245102;stroke-dashoffset:0"
       d="M 94.100725,193.75853 H 74.100607"
       id="path20" /><path
       style="fill:none;stroke:#000000;stroke-width:0.5;stroke-dasharray:0.94490203,0.47245102;stroke-dashoffset:0"
       d="M 74.100607,193.75853 V 173.75868"
       id="path21" /><path
       style="fill:none;stroke:#000000;stroke-width:0.5;stroke-dasharray:0.94490203,0.47245102;stroke-dashoffset:0"
       d="M 74.100607,173.75868 H 94.100725"
       id="path22" /><path
       style="fill:none;stroke:#000000;stroke-width:0.5;stroke-dasharray:0.94490203,0.47245102;stroke-dashoffset:0"
       d="m 94.100725,173.75868 v 19.99985"
       id="path23" /><path
       style="fill:none;stroke:#000000;stroke-width:0.5;stroke-dasharray:0.94490203,0.47245102;stroke-dashoffset:0"
       d="M 94.100725,193.75853 74.100607,173.75868"
       id="path24" /><path
       style="fill:none;stroke:#000000;stroke-width:0.5;stroke-dasharray:0.94490203,0.47245102;stroke-dashoffset:0"
       d="M 74.100607,193.75853 94.100725,173.75868"
       id="path25" /><path
       d="m 89.100733,173.75859 a 5,5 0 0 0 -9.999999,0 5,5 0 0 0 9.999999,0 z"
       style="fill:none;stroke:#ff0000;stroke-width:0.5;stroke-opacity:1;stroke-dasharray:none"
       id="path26" /><path
       d="m -10.899265,283.75859 a 5,5 0 0 0 -10,0 5,5 0 0 0 10,0 z"
       style="fill:none;stroke:#ff0000;stroke-width:0.5;stroke-opacity:1;stroke-dasharray:none"
       id="path27" /><path
       d="m 90.100733,193.75859 a 5.9999998,5.9999998 0 0 0 -11.999999,0 5.9999998,5.9999998 0 0 0 11.999999,0 z"
       style="fill:none;stroke:#ff0000;stroke-width:0.5;stroke-opacity:1;stroke-dasharray:none"
       id="path28" /><path
       d="m 79.100734,98.75859 a 5.0000005,5.0000005 0 0 0 -10.000001,0 5.0000005,5.0000005 0 0 0 10.000001,0 z"
       style="fill:none;stroke:#ff0000;stroke-width:0.5;stroke-opacity:1;stroke-dasharray:none"
       id="path29" /><path
       d="m 99.100734,98.75859 a 5.0000005,5.0000005 0 0 0 -10.000001,0 5.0000005,5.0000005 0 0 0 10.000001,0 z"
       style="fill:none;stroke:#ff0000;stroke-width:0.5;stroke-opacity:1;stroke-dasharray:none"
       id="path30" /><path
       style="fill:none;stroke:#ff0000;stroke-width:0.5;stroke-opacity:1;stroke-dasharray:none"
       d="M 79.100703,173.75868 V 98.758567"
       id="path31" /><path
       style="fill:none;stroke:#ff0000;stroke-width:0.5;stroke-opacity:1;stroke-dasharray:none"
       d="M 89.10063,173.75868 V 98.758567"
       id="path32" /><path
       style="fill:none;stroke:#ff0000;stroke-width:0.5;stroke-opacity:1;stroke-dasharray:none"
       d="M 94.100725,93.758471 H 159.10065"
       id="path33" /><path
       d="m 164.10073,98.75859 a 5.0000005,5.0000005 0 0 0 -10,0 5.0000005,5.0000005 0 0 0 10,0 z"
       style="fill:none;stroke:#ff0000;stroke-width:0.5;stroke-opacity:1;stroke-dasharray:none"
       id="path34" /><path
       style="fill:none;stroke:#ff0000;stroke-width:0.5;stroke-opacity:1;stroke-dasharray:none"
       d="M 164.10074,98.758567 V 178.75851"
       id="path35" /><path
       d="m 164.10073,178.75859 a 5.0000005,5.0000005 0 0 0 -10,0 5.0000005,5.0000005 0 0 0 10,0 z"
       style="fill:none;stroke:#ff0000;stroke-width:0.5;stroke-opacity:1;stroke-dasharray:none"
       id="path36" /><path
       style="fill:none;stroke:#ff0000;stroke-width:0.5;stroke-opacity:1;stroke-dasharray:none"
       d="M 94.100725,183.75861 H 159.10065"
       id="path37" /><path
       style="fill:none;stroke:#ff0000;stroke-width:0.5;stroke-opacity:1;stroke-dasharray:none"
       d="m 90.100754,193.75853 v 79.99889"
       id="path38" /><path
       style="fill:none;stroke:#ff0000;stroke-width:0.5;stroke-opacity:1;stroke-dasharray:none"
       d="M -15.899265,288.7593 H 184.10086"
       id="path39" /><path
       d="m 189.10073,283.75859 a 5.0000005,5.0000005 0 0 0 -10,0 5.0000005,5.0000005 0 0 0 10,0 z"
       style="fill:none;stroke:#ff0000;stroke-width:0.5;stroke-opacity:1;stroke-dasharray:none"
       id="path40" /><path
       d="m 100.10073,273.75858 a 5.0000005,5.0000005 0 0 0 -9.999997,0 5.0000005,5.0000005 0 0 0 9.999997,0 z"
       style="fill:none;stroke:#ff0000;stroke-width:0.5;stroke-opacity:1;stroke-dasharray:none"
       id="path41" /><path
       style="fill:none;stroke:#ff0000;stroke-width:0.5;stroke-opacity:1;stroke-dasharray:none"
       d="m 95.10085,278.75805 h 89.00001"
       id="path42" /><path
       style="fill:none;stroke:#ff0000;stroke-width:0.5;stroke-opacity:1;stroke-dasharray:none"
       d="m 78.100842,193.75853 v 79.99889"
       id="path43" /><path
       d="m 78.100734,273.75858 a 5,5 0 0 0 -9.999999,0 5,5 0 0 0 9.999999,0 z"
       style="fill:none;stroke:#ff0000;stroke-width:0.5;stroke-opacity:1;stroke-dasharray:none"
       id="path44" /><path
       style="fill:none;stroke:#ff0000;stroke-width:0.5;stroke-opacity:1;stroke-dasharray:none"
       d="M 73.100746,278.75805 H -5.8992587"
       id="path45" /><path
       d="m -0.89926529,273.75858 a 5,5 0 0 0 -9.99999971,0 5,5 0 0 0 9.99999971,0 z"
       style="fill:none;stroke:#ff0000;stroke-width:0.5;stroke-opacity:1;stroke-dasharray:none"
       id="path46" /><path
       style="fill:none;stroke:#ff0000;stroke-width:0.5;stroke-opacity:1;stroke-dasharray:none"
       d="M -10.899275,273.75742 V 188.7587"
       id="path47" /><path
       style="fill:none;stroke:#ff0000;stroke-width:0.5;stroke-opacity:1;stroke-dasharray:none"
       d="M 74.100607,183.75861 H -5.8992587"
       id="path48" /><path
       d="m -0.89926529,188.75859 a 5,5 0 0 0 -9.99999971,0 5,5 0 0 0 9.99999971,0 z"
       style="fill:none;stroke:#ff0000;stroke-width:0.5;stroke-opacity:1;stroke-dasharray:none"
       id="path49" /><path
       d="m 189.10073,83.758589 a 5.0000005,5.0000005 0 0 0 -10,0 5.0000005,5.0000005 0 0 0 10,0 z"
       style="fill:none;stroke:#0000ff;stroke-width:0.5;stroke-opacity:1;stroke-dasharray:none"
       id="path50" /><path
       style="fill:none;stroke:#000000;stroke-width:0.5;stroke-dasharray:none"
       d="m 184.10086,88.75864 h -5.00009"
       id="path51" /><path
       d="m 184.10073,93.75859 a 5,5 0 0 0 -10,0 5,5 0 0 0 10,0 z"
       style="fill:none;stroke:#0000ff;stroke-width:0.5;stroke-opacity:1;stroke-dasharray:none"
       id="path52" /><path
       style="fill:none;stroke:#0000ff;stroke-width:0.5;stroke-opacity:1;stroke-dasharray:none"
       d="M 174.10067,93.758471 V 173.75868"
       id="path53" /><path
       d="m 99.100734,183.75859 a 5.0000005,5.0000005 0 0 0 -10.000001,0 5.0000005,5.0000005 0 0 0 10.000001,0 z"
       style="fill:none;stroke:#0000ff;stroke-width:0.5;stroke-opacity:1;stroke-dasharray:none"
       id="path54" /><path
       d="m 79.100734,183.75859 a 5.0000005,5.0000005 0 0 0 -10.000001,0 5.0000005,5.0000005 0 0 0 10.000001,0 z"
       style="fill:none;stroke:#0000ff;stroke-width:0.5;stroke-opacity:1;stroke-dasharray:none"
       id="path55" /><path
       d="m 174.10073,173.75859 a 5.0000005,5.0000005 0 0 0 -10,0 5.0000005,5.0000005 0 0 0 10,0 z"
       style="fill:none;stroke:#0000ff;stroke-width:0.5;stroke-opacity:1;stroke-dasharray:none"
       id="path56" /><path
       style="fill:none;stroke:#0000ff;stroke-width:0.5;stroke-opacity:1;stroke-dasharray:none"
       d="M 94.100725,178.75851 H 169.10084"
       id="path57" /><path
       style="fill:none;stroke:#0000ff;stroke-width:0.5;stroke-opacity:1;stroke-dasharray:none"
       d="M 94.100725,188.7587 H 169.10084"
       id="path58" /><path
       d="m 174.10073,193.75859 a 5.0000005,5.0000005 0 0 0 -10,0 5.0000005,5.0000005 0 0 0 10,0 z"
       style="fill:none;stroke:#0000ff;stroke-width:0.5;stroke-opacity:1;stroke-dasharray:none"
       id="path59" /><path
       style="fill:none;stroke:#0000ff;stroke-width:0.5;stroke-opacity:1;stroke-dasharray:none"
       d="m 174.10067,193.75853 v 84.99952"
       id="path60" /><path
       d="m 174.10073,278.75857 a 5.0000005,5.0000005 0 0 0 -10,0 5.0000005,5.0000005 0 0 0 10,0 z"
       style="fill:none;stroke:#0000ff;stroke-width:0.5;stroke-opacity:1;stroke-dasharray:none"
       id="path61" /><path
       d="m 94.100733,278.75857 a 5,5 0 0 0 -9.999998,0 5,5 0 0 0 9.999998,0 z"
       style="fill:none;stroke:#0000ff;stroke-width:0.5;stroke-opacity:1;stroke-dasharray:none"
       id="path62" /><path
       style="fill:none;stroke:#0000ff;stroke-width:0.5;stroke-opacity:1;stroke-dasharray:none"
       d="m 89.10063,283.75867 h 80.00021"
       id="path63" /><path
       style="fill:none;stroke:#0000ff;stroke-width:0.5;stroke-opacity:1;stroke-dasharray:none"
       d="M 84.100798,278.75805 V 193.75853"
       id="path64" /><path
       style="fill:none;stroke:#0000ff;stroke-width:0.5;stroke-opacity:1;stroke-dasharray:none"
       d="M 184.10086,78.758713 H -28.899276"
       id="path65" /><path
       d="m -23.899265,83.758589 a 5,5 0 0 0 -10,0 5,5 0 0 0 10,0 z"
       style="fill:none;stroke:#0000ff;stroke-width:0.5;stroke-opacity:1;stroke-dasharray:none"
       id="path66" /><path
       style="fill:none;stroke:#0000ff;stroke-width:0.5;stroke-opacity:1;stroke-dasharray:none"
       d="M 84.100798,173.75868 V 108.75849"
       id="path67" /><path
       d="m 84.100735,108.75859 a 5.0000005,5.0000005 0 0 0 -10.000001,0 5.0000005,5.0000005 0 0 0 10.000001,0 z"
       style="fill:none;stroke:#0000ff;stroke-width:0.5;stroke-opacity:1;stroke-dasharray:none"
       id="path68" /><path
       style="fill:none;stroke:#0000ff;stroke-width:0.5;stroke-opacity:1;stroke-dasharray:none"
       d="M 79.100703,103.75866 H -18.89927"
       id="path69" /><path
       style="fill:none;stroke:#0000ff;stroke-width:0.5;stroke-opacity:1;stroke-dasharray:none"
       d="M -33.899266,83.758544 V 283.75867"
       id="path70" /><path
       d="m -23.899265,283.75859 a 5,5 0 0 0 -10,0 5,5 0 0 0 10,0 z"
       style="fill:none;stroke:#0000ff;stroke-width:0.5;stroke-opacity:1;stroke-dasharray:none"
       id="path71" /><path
       style="fill:none;stroke:#0000ff;stroke-width:0.5;stroke-opacity:1;stroke-dasharray:none"
       d="M 74.100607,188.7587 H -18.89927"
       id="path72" /><path
       style="fill:none;stroke:#0000ff;stroke-width:0.5;stroke-opacity:1;stroke-dasharray:none"
       d="M 74.100607,178.75851 H -18.89927"
       id="path73" /><path
       d="m -13.899265,193.75859 a 5,5 0 0 0 -10,0 5,5 0 0 0 10,0 z"
       style="fill:none;stroke:#0000ff;stroke-width:0.5;stroke-opacity:1;stroke-dasharray:none"
       id="path74" /><path
       d="m -13.899265,173.75859 a 5,5 0 0 0 -10,0 5,5 0 0 0 10,0 z"
       style="fill:none;stroke:#0000ff;stroke-width:0.5;stroke-opacity:1;stroke-dasharray:none"
       id="path75" /><path
       d="m -13.899265,108.75859 a 5,5 0 0 0 -10,0 5,5 0 0 0 10,0 z"
       style="fill:none;stroke:#0000ff;stroke-width:0.5;stroke-opacity:1;stroke-dasharray:none"
       id="path76" /><path
       style="fill:none;stroke:#0000ff;stroke-width:0.5;stroke-opacity:1;stroke-dasharray:none"
       d="m -23.899259,193.75853 v 90.00014"
       id="path77" /><path
       style="fill:none;stroke:#0000ff;stroke-width:0.5;stroke-opacity:1;stroke-dasharray:none"
       d="M -23.899259,173.75868 V 108.75849"
       id="path78" /><path
       style="fill:#4d4d4d;stroke:#000000;stroke-width:0.5;stroke-dasharray:0.94490203,0.47245102;stroke-dashoffset:0"
       d="M 4.1007477,63.75869 H -35.899278"
       id="path79" /><path
       style="fill:#4d4d4d;stroke:#000000;stroke-width:0.5;stroke-dasharray:0.94490203,0.47245102;stroke-dashoffset:0"
       d="m -35.899278,63.75869 v 39.99997"
       id="path80" /><path
       style="fill:#4d4d4d;stroke:#000000;stroke-width:0.5;stroke-dasharray:0.94490203,0.47245102;stroke-dashoffset:0"
       d="M -35.899278,103.75866 H 4.1007477"
       id="path81" /><path
       style="fill:#4d4d4d;stroke:#000000;stroke-width:0.5;stroke-dasharray:0.94490203,0.47245102;stroke-dashoffset:0"
       d="M 4.1007477,103.75866 V 63.75869"
       id="path82" /><path
       style="fill:#ff0000;stroke:#000000;stroke-width:0.5;stroke-dasharray:0.94490203,0.47245102;stroke-dashoffset:0"
       d="M 4.1007477,63.75869 -35.899278,103.75866"
       id="path83" /><path
       style="fill:none;stroke:#000000;stroke-width:0.5;stroke-dasharray:0.94490203,0.47245102;stroke-dashoffset:0"
       d="M -35.899278,63.75869 4.1007477,103.75866"
       id="path84" /><path
       style="fill:#4d4d4d;stroke:#000000;stroke-width:0.5;stroke-dasharray:0.94490203,0.47245102;stroke-dashoffset:0"
       d="M 204.10072,103.75866 H 164.10074"
       id="path85" /><path
       style="fill:none;stroke:#000000;stroke-width:0.5;stroke-dasharray:0.94490203,0.47245102;stroke-dashoffset:0"
       d="M 164.10074,103.75866 V 63.75869"
       id="path86" /><path
       style="fill:none;stroke:#000000;stroke-width:0.5;stroke-dasharray:0.94490203,0.47245102;stroke-dashoffset:0"
       d="m 164.10074,63.75869 h 39.99998"
       id="path87" /><path
       style="fill:none;stroke:#000000;stroke-width:0.5;stroke-dasharray:0.94490203,0.47245102;stroke-dashoffset:0"
       d="m 204.10072,63.75869 v 39.99997"
       id="path88" /><path
       style="fill:#4d4d4d;stroke:#000000;stroke-width:0.5;stroke-dasharray:0.94490203,0.47245102;stroke-dashoffset:0"
       d="M 204.10072,103.75866 164.10074,63.75869"
       id="path89" /><path
       style="fill:#4d4d4d;stroke:#000000;stroke-width:0.5;stroke-dasharray:0.94490203,0.47245102;stroke-dashoffset:0"
       d="M 164.10074,103.75866 204.10072,63.75869"
       id="path90" /></g></svg>
