<?xml version="1.0" encoding="UTF-8" standalone="no"?>
<!-- Created with Inkscape (http://www.inkscape.org/) -->

<svg
   width="59.537014mm"
   height="59.53701mm"
   viewBox="0 0 59.537014 59.53701"
   version="1.1"
   id="svg1"
   xml:space="preserve"
   inkscape:version="1.4.2 (f4327f4, 2025-05-13)"
   sodipodi:docname="drawing.svg"
   xmlns:inkscape="http://www.inkscape.org/namespaces/inkscape"
   xmlns:sodipodi="http://sodipodi.sourceforge.net/DTD/sodipodi-0.dtd"
   xmlns="http://www.w3.org/2000/svg"
   xmlns:svg="http://www.w3.org/2000/svg"><sodipodi:namedview
     id="namedview1"
     pagecolor="#505050"
     bordercolor="#eeeeee"
     borderopacity="1"
     inkscape:showpageshadow="0"
     inkscape:pageopacity="0"
     inkscape:pagecheckerboard="0"
     inkscape:deskcolor="#505050"
     inkscape:document-units="mm"
     inkscape:zoom="0.71891835"
     inkscape:cx="283.06413"
     inkscape:cy="-38.25191"
     inkscape:window-width="1920"
     inkscape:window-height="1009"
     inkscape:window-x="1912"
     inkscape:window-y="-8"
     inkscape:window-maximized="1"
     inkscape:current-layer="layer1" /><defs
     id="defs1" /><g
     inkscape:label="Layer 1"
     inkscape:groupmode="layer"
     id="layer1"
     transform="translate(-30.003415,-158.77799)"><path
       style="fill:#000000"
       d="m 56.793446,215.33383 -2.972717,-2.98118 5.95119,-5.94678 5.95119,-5.94678 -2.97238,-2.98084 -2.97238,-2.98084 -5.958122,5.95391 -5.958126,5.9539 -8.929343,-8.93224 -8.929343,-8.93224 2.981174,-2.97272 2.981174,-2.97272 5.946783,5.95119 5.946784,5.9512 2.980836,-2.97238 2.980837,-2.97238 -5.953902,-5.95813 -5.953902,-5.95813 8.93224,-8.92934 8.93224,-8.92934 2.97272,2.98117 2.97271,2.98118 -5.95119,5.94678 -5.95119,5.94678 2.97238,2.98084 2.97238,2.98083 5.95813,-5.9539 5.95812,-5.9539 8.92935,8.93224 8.92934,8.93224 -2.98118,2.97272 -2.98117,2.97272 -5.94678,-5.9512 -5.94679,-5.95119 -2.98083,2.97238 -2.98084,2.97238 5.9539,5.95813 5.9539,5.95813 -8.93224,8.92934 -8.93224,8.92934 z"
       id="path1" /></g></svg>
