999
"DXF R12 Output" (www.mydxf.blogspot.com)
 0 
SECTION
 2 
HEADER
 9 
$ACADVER
 1 
AC1009
 9 
$EXTMIN
 10 
 0 
 20 
 0 
 9 
$EXTMAX
 10 
 8.5 
 20 
 11 
 0 
ENDSEC
 0 
SECTION
 2 
ENTITIES
0
POLYLINE
8
Layer 1
62
7
70
0
10
0.000000
20
0.000000
66
1
0
VERTEX
8
Layer 1
10
2.162274
20
0.001754
70
0
0
VERTEX
8
Layer 1
10
2.133464
20
0.009904
70
0
0
VERTEX
8
Layer 1
10
2.097534
20
0.015914
70
0
0
VERTEX
8
Layer 1
10
2.061144
20
0.022524
70
0
0
VERTEX
8
Layer 1
10
2.011084
20
0.033190
70
0
0
VERTEX
8
Layer 1
10
1.964224
20
0.042770
70
0
0
VERTEX
8
Layer 1
10
1.941774
20
0.048290
70
0
0
VERTEX
8
Layer 1
10
1.922734
20
0.054370
70
0
0
VERTEX
8
Layer 1
10
1.893604
20
0.064816
70
0
0
VERTEX
8
Layer 1
10
1.864474
20
0.074923
70
0
0
VERTEX
8
Layer 1
10
1.853144
20
0.080763
70
0
0
VERTEX
8
Layer 1
10
1.817054
20
0.089483
70
0
0
VERTEX
8
Layer 1
10
1.792294
20
0.098103
70
0
0
VERTEX
8
Layer 1
10
1.790694
20
0.158977
70
0
0
VERTEX
8
Layer 1
10
1.773374
20
0.244047
70
0
0
VERTEX
8
Layer 1
10
1.751184
20
0.268468
70
0
0
VERTEX
8
Layer 1
10
1.728524
20
0.281352
70
0
0
VERTEX
8
Layer 1
10
1.660554
20
0.287822
70
0
0
VERTEX
8
Layer 1
10
1.640754
20
0.281352
70
0
0
VERTEX
8
Layer 1
10
1.624954
20
0.272852
70
0
0
VERTEX
8
Layer 1
10
1.605534
20
0.245746
70
0
0
VERTEX
8
Layer 1
10
1.586114
20
0.206485
70
0
0
VERTEX
8
Layer 1
10
1.576514
20
0.177880
70
0
0
VERTEX
8
Layer 1
10
1.546884
20
0.186800
70
0
0
VERTEX
8
Layer 1
10
1.518834
20
0.203669
70
0
0
VERTEX
8
Layer 1
10
1.447344
20
0.237749
70
0
0
VERTEX
8
Layer 1
10
1.356334
20
0.359040
70
0
0
VERTEX
8
Layer 1
10
1.344864
20
0.396465
70
0
0
VERTEX
8
Layer 1
10
1.341764
20
0.508132
70
0
0
VERTEX
8
Layer 1
10
1.340264
20
0.614668
70
0
0
VERTEX
8
Layer 1
10
1.330764
20
0.647042
70
0
0
VERTEX
8
Layer 1
10
1.320304
20
0.676253
70
0
0
VERTEX
8
Layer 1
10
1.314204
20
0.690152
70
0
0
VERTEX
8
Layer 1
10
1.259314
20
0.770122
70
0
0
VERTEX
8
Layer 1
10
1.182784
20
0.805728
70
0
0
VERTEX
8
Layer 1
10
1.168544
20
0.812198
70
0
0
VERTEX
8
Layer 1
10
1.139414
20
0.818668
70
0
0
VERTEX
8
Layer 1
10
1.110284
20
0.825138
70
0
0
VERTEX
8
Layer 1
10
0.993756
20
0.831608
70
0
0
VERTEX
8
Layer 1
10
0.877229
20
0.838078
70
0
0
VERTEX
8
Layer 1
10
0.828679
20
0.844548
70
0
0
VERTEX
8
Layer 1
10
0.780649
20
0.850168
70
0
0
VERTEX
8
Layer 1
10
0.744929
20
0.860068
70
0
0
VERTEX
8
Layer 1
10
0.709339
20
0.869758
70
0
0
VERTEX
8
Layer 1
10
0.683119
20
0.878888
70
0
0
VERTEX
8
Layer 1
10
0.641499
20
0.895945
70
0
0
VERTEX
8
Layer 1
10
0.614839
20
0.909290
70
0
0
VERTEX
8
Layer 1
10
0.517239
20
0.958686
70
0
0
VERTEX
8
Layer 1
10
0.500959
20
0.967556
70
0
0
VERTEX
8
Layer 1
10
0.492059
20
0.974026
70
0
0
VERTEX
8
Layer 1
10
0.483559
20
0.980496
70
0
0
VERTEX
8
Layer 1
10
0.352820
20
1.103696
70
0
0
VERTEX
8
Layer 1
10
0.325740
20
1.139488
70
0
0
VERTEX
8
Layer 1
10
0.300820
20
1.183186
70
0
0
VERTEX
8
Layer 1
10
0.290680
20
1.200604
70
0
0
VERTEX
8
Layer 1
10
0.284680
20
1.211933
70
0
0
VERTEX
8
Layer 1
10
0.271950
20
1.249157
70
0
0
VERTEX
8
Layer 1
10
0.259220
20
1.292473
70
0
0
VERTEX
8
Layer 1
10
0.253020
20
1.313615
70
0
0
VERTEX
8
Layer 1
10
0.242550
20
1.352925
70
0
0
VERTEX
8
Layer 1
10
0.232750
20
1.391846
70
0
0
VERTEX
8
Layer 1
10
0.231150
20
1.427251
70
0
0
VERTEX
8
Layer 1
10
0.226750
20
1.469215
70
0
0
VERTEX
8
Layer 1
10
0.223450
20
1.648977
70
0
0
VERTEX
8
Layer 1
10
0.231350
20
1.844743
70
0
0
VERTEX
8
Layer 1
10
0.233550
20
2.042193
70
0
0
VERTEX
8
Layer 1
10
0.226750
20
2.067824
70
0
0
VERTEX
8
Layer 1
10
0.206490
20
2.201453
70
0
0
VERTEX
8
Layer 1
10
0.196690
20
2.238854
70
0
0
VERTEX
8
Layer 1
10
0.186990
20
2.272570
70
0
0
VERTEX
8
Layer 1
10
0.181390
20
2.293611
70
0
0
VERTEX
8
Layer 1
10
0.172490
20
2.323979
70
0
0
VERTEX
8
Layer 1
10
0.158940
20
2.370729
70
0
0
VERTEX
8
Layer 1
10
0.148930
20
2.408021
70
0
0
VERTEX
8
Layer 1
10
0.139030
20
2.454963
70
0
0
VERTEX
8
Layer 1
10
0.129530
20
2.505067
70
0
0
VERTEX
8
Layer 1
10
0.116280
20
2.582752
70
0
0
VERTEX
8
Layer 1
10
0.103240
20
2.660437
70
0
0
VERTEX
8
Layer 1
10
0.093740
20
2.746352
70
0
0
VERTEX
8
Layer 1
10
0.083020
20
2.829514
70
0
0
VERTEX
8
Layer 1
10
0.081420
20
2.868269
70
0
0
VERTEX
8
Layer 1
10
0.078120
20
2.912570
70
0
0
VERTEX
8
Layer 1
10
0.076220
20
3.430816
70
0
0
VERTEX
8
Layer 1
10
0.097240
20
3.573238
70
0
0
VERTEX
8
Layer 1
10
0.107140
20
3.636314
70
0
0
VERTEX
8
Layer 1
10
0.117260
20
3.690104
70
0
0
VERTEX
8
Layer 1
10
0.123160
20
3.715660
70
0
0
VERTEX
8
Layer 1
10
0.128860
20
3.741083
70
0
0
VERTEX
8
Layer 1
10
0.139080
20
3.786781
70
0
0
VERTEX
8
Layer 1
10
0.148880
20
3.828950
70
0
0
VERTEX
8
Layer 1
10
0.157580
20
3.849990
70
0
0
VERTEX
8
Layer 1
10
0.181490
20
3.942241
70
0
0
VERTEX
8
Layer 1
10
0.190790
20
3.971373
70
0
0
VERTEX
8
Layer 1
10
0.216400
20
4.043563
70
0
0
VERTEX
8
Layer 1
10
0.226770
20
4.077168
70
0
0
VERTEX
8
Layer 1
10
0.232470
20
4.090684
70
0
0
VERTEX
8
Layer 1
10
0.242740
20
4.118361
70
0
0
VERTEX
8
Layer 1
10
0.259710
20
4.159967
70
0
0
VERTEX
8
Layer 1
10
0.276180
20
4.197544
70
0
0
VERTEX
8
Layer 1
10
0.285880
20
4.221129
70
0
0
VERTEX
8
Layer 1
10
0.291480
20
4.236386
70
0
0
VERTEX
8
Layer 1
10
0.301180
20
4.256218
70
0
0
VERTEX
8
Layer 1
10
0.310880
20
4.275935
70
0
0
VERTEX
8
Layer 1
10
0.327100
20
4.306866
70
0
0
VERTEX
8
Layer 1
10
0.347330
20
4.346205
70
0
0
VERTEX
8
Layer 1
10
0.356330
20
4.366271
70
0
0
VERTEX
8
Layer 1
10
0.365630
20
4.383690
70
0
0
VERTEX
8
Layer 1
10
0.380900
20
4.411295
70
0
0
VERTEX
8
Layer 1
10
0.415900
20
4.463377
70
0
0
VERTEX
8
Layer 1
10
0.438510
20
4.499594
70
0
0
VERTEX
8
Layer 1
10
0.453290
20
4.524557
70
0
0
VERTEX
8
Layer 1
10
0.472710
20
4.554010
70
0
0
VERTEX
8
Layer 1
10
0.492160
20
4.584073
70
0
0
VERTEX
8
Layer 1
10
0.527770
20
4.629496
70
0
0
VERTEX
8
Layer 1
10
0.563350
20
4.673750
70
0
0
VERTEX
8
Layer 1
10
0.757739
20
4.872082
70
0
0
VERTEX
8
Layer 1
10
0.809829
20
4.918217
70
0
0
VERTEX
8
Layer 1
10
0.846489
20
4.945129
70
0
0
VERTEX
8
Layer 1
10
0.919959
20
4.997314
70
0
0
VERTEX
8
Layer 1
10
0.936629
20
5.007173
70
0
0
VERTEX
8
Layer 1
10
0.958739
20
5.023913
70
0
0
VERTEX
8
Layer 1
10
1.006799
20
5.056551
70
0
0
VERTEX
8
Layer 1
10
1.068299
20
5.092139
70
0
0
VERTEX
8
Layer 1
10
1.130629
20
5.123701
70
0
0
VERTEX
8
Layer 1
10
1.141849
20
5.133412
70
0
0
VERTEX
8
Layer 1
10
1.157229
20
5.143123
70
0
0
VERTEX
8
Layer 1
10
1.217319
20
5.168717
70
0
0
VERTEX
8
Layer 1
10
1.330136
20
5.220808
70
0
0
VERTEX
8
Layer 1
10
1.340196
20
5.226988
70
0
0
VERTEX
8
Layer 1
10
1.362926
20
5.237432
70
0
0
VERTEX
8
Layer 1
10
1.389206
20
5.247436
70
0
0
VERTEX
8
Layer 1
10
1.403796
20
5.253176
70
0
0
VERTEX
8
Layer 1
10
1.438996
20
5.266124
70
0
0
VERTEX
8
Layer 1
10
1.474506
20
5.279277
70
0
0
VERTEX
8
Layer 1
10
1.498426
20
5.288988
70
0
0
VERTEX
8
Layer 1
10
1.525936
20
5.298493
70
0
0
VERTEX
8
Layer 1
10
1.540886
20
5.304232
70
0
0
VERTEX
8
Layer 1
10
1.569866
20
5.314317
70
0
0
VERTEX
8
Layer 1
10
1.602246
20
5.324156
70
0
0
VERTEX
8
Layer 1
10
1.637996
20
5.334099
70
0
0
VERTEX
8
Layer 1
10
1.674136
20
5.344679
70
0
0
VERTEX
8
Layer 1
10
1.689786
20
5.347046
70
0
0
VERTEX
8
Layer 1
10
1.705346
20
5.349273
70
0
0
VERTEX
8
Layer 1
10
1.738106
20
5.359621
70
0
0
VERTEX
8
Layer 1
10
1.770656
20
5.369626
70
0
0
VERTEX
8
Layer 1
10
1.809736
20
5.379719
70
0
0
VERTEX
8
Layer 1
10
1.848546
20
5.389375
70
0
0
VERTEX
8
Layer 1
10
1.893866
20
5.399093
70
0
0
VERTEX
8
Layer 1
10
1.939156
20
5.408763
70
0
0
VERTEX
8
Layer 1
10
1.992476
20
5.418487
70
0
0
VERTEX
8
Layer 1
10
2.050786
20
5.429614
70
0
0
VERTEX
8
Layer 1
10
2.086976
20
5.432339
70
0
0
VERTEX
8
Layer 1
10
2.121086
20
5.434600
70
0
0
VERTEX
8
Layer 1
10
2.204656
20
5.444927
70
0
0
VERTEX
8
Layer 1
10
2.290456
20
5.455740
70
0
0
VERTEX
8
Layer 1
10
2.554655
20
5.439891
70
0
0
VERTEX
8
Layer 1
10
2.589625
20
5.434443
70
0
0
VERTEX
8
Layer 1
10
2.624705
20
5.428815
70
0
0
VERTEX
8
Layer 1
10
2.686585
20
5.418618
70
0
0
VERTEX
8
Layer 1
10
2.744985
20
5.408062
70
0
0
VERTEX
8
Layer 1
10
2.770885
20
5.402074
70
0
0
VERTEX
8
Layer 1
10
2.796785
20
5.396153
70
0
0
VERTEX
8
Layer 1
10
2.845335
20
5.385681
70
0
0
VERTEX
8
Layer 1
10
2.893885
20
5.375418
70
0
0
VERTEX
8
Layer 1
10
2.912925
20
5.369705
70
0
0
VERTEX
8
Layer 1
10
2.935585
20
5.363838
70
0
0
VERTEX
8
Layer 1
10
2.971575
20
5.353520
70
0
0
VERTEX
8
Layer 1
10
3.003935
20
5.343203
70
0
0
VERTEX
8
Layer 1
10
3.016135
20
5.337337
70
0
0
VERTEX
8
Layer 1
10
3.118200
20
5.307399
70
0
0
VERTEX
8
Layer 1
10
3.155420
20
5.298495
70
0
0
VERTEX
8
Layer 1
10
3.172240
20
5.292907
70
0
0
VERTEX
8
Layer 1
10
3.209460
20
5.275679
70
0
0
VERTEX
8
Layer 1
10
3.256400
20
5.259022
70
0
0
VERTEX
8
Layer 1
10
3.304950
20
5.236909
70
0
0
VERTEX
8
Layer 1
10
3.363210
20
5.210825
70
0
0
VERTEX
8
Layer 1
10
3.400500
20
5.197657
70
0
0
VERTEX
8
Layer 1
10
3.421920
20
5.187723
70
0
0
VERTEX
8
Layer 1
10
3.435810
20
5.181966
70
0
0
VERTEX
8
Layer 1
10
3.467500
20
5.165680
70
0
0
VERTEX
8
Layer 1
10
3.508570
20
5.145449
70
0
0
VERTEX
8
Layer 1
10
3.528290
20
5.136355
70
0
0
VERTEX
8
Layer 1
10
3.547710
20
5.126939
70
0
0
VERTEX
8
Layer 1
10
3.567200
20
5.118332
70
0
0
VERTEX
8
Layer 1
10
3.593100
20
5.101621
70
0
0
VERTEX
8
Layer 1
10
3.618920
20
5.083818
70
0
0
VERTEX
8
Layer 1
10
3.627820
20
5.078386
70
0
0
VERTEX
8
Layer 1
10
3.644330
20
5.069233
70
0
0
VERTEX
8
Layer 1
10
3.679110
20
5.046537
70
0
0
VERTEX
8
Layer 1
10
3.738310
20
5.012255
70
0
0
VERTEX
8
Layer 1
10
3.768650
20
4.987978
70
0
0
VERTEX
8
Layer 1
10
3.799400
20
4.968332
70
0
0
VERTEX
8
Layer 1
10
3.806600
20
4.961698
70
0
0
VERTEX
8
Layer 1
10
3.821590
20
4.949364
70
0
0
VERTEX
8
Layer 1
10
3.872670
20
4.910682
70
0
0
VERTEX
8
Layer 1
10
3.914320
20
4.877611
70
0
0
VERTEX
8
Layer 1
10
3.945570
20
4.847784
70
0
0
VERTEX
8
Layer 1
10
3.986030
20
4.812426
70
0
0
VERTEX
8
Layer 1
10
4.000810
20
4.796937
70
0
0
VERTEX
8
Layer 1
10
4.008910
20
4.786858
70
0
0
VERTEX
8
Layer 1
10
4.046130
20
4.753923
70
0
0
VERTEX
8
Layer 1
10
4.102770
20
4.693740
70
0
0
VERTEX
8
Layer 1
10
4.130280
20
4.660862
70
0
0
VERTEX
8
Layer 1
10
4.139780
20
4.645186
70
0
0
VERTEX
8
Layer 1
10
4.188500
20
4.581880
70
0
0
VERTEX
8
Layer 1
10
4.207920
20
4.557247
70
0
0
VERTEX
8
Layer 1
10
4.227340
20
4.532370
70
0
0
VERTEX
8
Layer 1
10
4.245140
20
4.502932
70
0
0
VERTEX
8
Layer 1
10
4.339110
20
4.340376
70
0
0
VERTEX
8
Layer 1
10
4.370660
20
4.289665
70
0
0
VERTEX
8
Layer 1
10
4.376260
20
4.281995
70
0
0
VERTEX
8
Layer 1
10
4.383960
20
4.258258
70
0
0
VERTEX
8
Layer 1
10
4.392960
20
4.233560
70
0
0
VERTEX
8
Layer 1
10
4.408480
20
4.197954
70
0
0
VERTEX
8
Layer 1
10
4.421850
20
4.167204
70
0
0
VERTEX
8
Layer 1
10
4.445460
20
4.107767
70
0
0
VERTEX
8
Layer 1
10
4.464530
20
4.054359
70
0
0
VERTEX
8
Layer 1
10
4.473830
20
4.029637
70
0
0
VERTEX
8
Layer 1
10
4.483430
20
4.006907
70
0
0
VERTEX
8
Layer 1
10
4.493230
20
3.980746
70
0
0
VERTEX
8
Layer 1
10
4.503030
20
3.945067
70
0
0
VERTEX
8
Layer 1
10
4.512730
20
3.909461
70
0
0
VERTEX
8
Layer 1
10
4.522430
20
3.873855
70
0
0
VERTEX
8
Layer 1
10
4.531930
20
3.838364
70
0
0
VERTEX
8
Layer 1
10
4.541630
20
3.804522
70
0
0
VERTEX
8
Layer 1
10
4.551130
20
3.767449
70
0
0
VERTEX
8
Layer 1
10
4.563550
20
3.699787
70
0
0
VERTEX
8
Layer 1
10
4.577050
20
3.631235
70
0
0
VERTEX
8
Layer 1
10
4.582350
20
3.598554
70
0
0
VERTEX
8
Layer 1
10
4.596290
20
3.508499
70
0
0
VERTEX
8
Layer 1
10
4.610670
20
2.991488
70
0
0
VERTEX
8
Layer 1
10
4.603570
20
2.944171
70
0
0
VERTEX
8
Layer 1
10
4.594270
20
2.866650
70
0
0
VERTEX
8
Layer 1
10
4.589570
20
2.822820
70
0
0
VERTEX
8
Layer 1
10
4.582870
20
2.738122
70
0
0
VERTEX
8
Layer 1
10
4.572470
20
2.652170
70
0
0
VERTEX
8
Layer 1
10
4.562970
20
2.608090
70
0
0
VERTEX
8
Layer 1
10
4.557370
20
2.573041
70
0
0
VERTEX
8
Layer 1
10
4.551570
20
2.537854
70
0
0
VERTEX
8
Layer 1
10
4.541190
20
2.482445
70
0
0
VERTEX
8
Layer 1
10
4.530800
20
2.430619
70
0
0
VERTEX
8
Layer 1
10
4.525000
20
2.409579
70
0
0
VERTEX
8
Layer 1
10
4.498730
20
2.313270
70
0
0
VERTEX
8
Layer 1
10
4.489030
20
2.279211
70
0
0
VERTEX
8
Layer 1
10
4.478880
20
2.252137
70
0
0
VERTEX
8
Layer 1
10
4.473180
20
2.229933
70
0
0
VERTEX
8
Layer 1
10
4.467480
20
2.207736
70
0
0
VERTEX
8
Layer 1
10
4.457400
20
2.175136
70
0
0
VERTEX
8
Layer 1
10
4.447500
20
2.142619
70
0
0
VERTEX
8
Layer 1
10
4.437400
20
2.097062
70
0
0
VERTEX
8
Layer 1
10
4.427180
20
2.051432
70
0
0
VERTEX
8
Layer 1
10
4.421480
20
2.016298
70
0
0
VERTEX
8
Layer 1
10
4.414780
20
1.980579
70
0
0
VERTEX
8
Layer 1
10
4.412580
20
1.695351
70
0
0
VERTEX
8
Layer 1
10
4.409480
20
1.414238
70
0
0
VERTEX
8
Layer 1
10
4.401980
20
1.379014
70
0
0
VERTEX
8
Layer 1
10
4.395780
20
1.339974
70
0
0
VERTEX
8
Layer 1
10
4.385220
20
1.297368
70
0
0
VERTEX
8
Layer 1
10
4.375210
20
1.255104
70
0
0
VERTEX
8
Layer 1
10
4.369610
20
1.237539
70
0
0
VERTEX
8
Layer 1
10
4.352770
20
1.187750
70
0
0
VERTEX
8
Layer 1
10
4.325540
20
1.129393
70
0
0
VERTEX
8
Layer 1
10
4.287350
20
1.073333
70
0
0
VERTEX
8
Layer 1
10
4.259500
20
1.034490
70
0
0
VERTEX
8
Layer 1
10
4.229360
20
1.003154
70
0
0
VERTEX
8
Layer 1
10
4.176000
20
0.957299
70
0
0
VERTEX
8
Layer 1
10
4.143020
20
0.932951
70
0
0
VERTEX
8
Layer 1
10
4.113890
20
0.915950
70
0
0
VERTEX
8
Layer 1
10
3.997655
20
0.857494
70
0
0
VERTEX
8
Layer 1
10
3.966545
20
0.844547
70
0
0
VERTEX
8
Layer 1
10
3.929415
20
0.831599
70
0
0
VERTEX
8
Layer 1
10
3.916445
20
0.825519
70
0
0
VERTEX
8
Layer 1
10
3.871125
20
0.814972
70
0
0
VERTEX
8
Layer 1
10
3.825805
20
0.804423
70
0
0
VERTEX
8
Layer 1
10
3.783725
20
0.799863
70
0
0
VERTEX
8
Layer 1
10
3.737325
20
0.797073
70
0
0
VERTEX
8
Layer 1
10
3.628889
20
0.792553
70
0
0
VERTEX
8
Layer 1
10
3.421853
20
0.773349
70
0
0
VERTEX
8
Layer 1
10
3.401573
20
0.766859
70
0
0
VERTEX
8
Layer 1
10
3.307893
20
0.684932
70
0
0
VERTEX
8
Layer 1
10
3.298193
20
0.665591
70
0
0
VERTEX
8
Layer 1
10
3.288493
20
0.643395
70
0
0
VERTEX
8
Layer 1
10
3.281993
20
0.630910
70
0
0
VERTEX
8
Layer 1
10
3.275493
20
0.611871
70
0
0
VERTEX
8
Layer 1
10
3.268993
20
0.588831
70
0
0
VERTEX
8
Layer 1
10
3.262493
20
0.471834
70
0
0
VERTEX
8
Layer 1
10
3.254993
20
0.344359
70
0
0
VERTEX
8
Layer 1
10
3.242033
20
0.320170
70
0
0
VERTEX
8
Layer 1
10
3.229703
20
0.294275
70
0
0
VERTEX
8
Layer 1
10
3.168293
20
0.229538
70
0
0
VERTEX
8
Layer 1
10
3.149183
20
0.216590
70
0
0
VERTEX
8
Layer 1
10
3.128763
20
0.203642
70
0
0
VERTEX
8
Layer 1
10
3.120063
20
0.197682
70
0
0
VERTEX
8
Layer 1
10
3.100713
20
0.187473
70
0
0
VERTEX
8
Layer 1
10
3.077673
20
0.177248
70
0
0
VERTEX
8
Layer 1
10
3.062203
20
0.171268
70
0
0
VERTEX
8
Layer 1
10
3.042373
20
0.161558
70
0
0
VERTEX
8
Layer 1
10
3.022983
20
0.151848
70
0
0
VERTEX
8
Layer 1
10
3.008473
20
0.184907
70
0
0
VERTEX
8
Layer 1
10
2.999073
20
0.222131
70
0
0
VERTEX
8
Layer 1
10
2.988613
20
0.237797
70
0
0
VERTEX
8
Layer 1
10
2.907493
20
0.274755
70
0
0
VERTEX
8
Layer 1
10
2.874043
20
0.265325
70
0
0
VERTEX
8
Layer 1
10
2.844213
20
0.249746
70
0
0
VERTEX
8
Layer 1
10
2.816483
20
0.216488
70
0
0
VERTEX
8
Layer 1
10
2.806783
20
0.141639
70
0
0
VERTEX
8
Layer 1
10
2.765123
20
0.070430
70
0
0
VERTEX
8
Layer 1
10
2.727853
20
0.060480
70
0
0
VERTEX
8
Layer 1
10
2.671213
20
0.047188
70
0
0
VERTEX
8
Layer 1
10
2.621613
20
0.034679
70
0
0
VERTEX
8
Layer 1
10
2.577913
20
0.025339
70
0
0
VERTEX
8
Layer 1
10
2.527743
20
0.015829
70
0
0
VERTEX
8
Layer 1
10
2.462343
20
0.006289
70
0
0
VERTEX
8
Layer 1
10
2.403413
20
0.001719
70
0
0
VERTEX
8
Layer 1
10
2.399713
20
0.039555
70
0
0
VERTEX
8
Layer 1
10
2.371883
20
0.112946
70
0
0
VERTEX
8
Layer 1
10
2.349713
20
0.129181
70
0
0
VERTEX
8
Layer 1
10
2.213843
20
0.104876
70
0
0
VERTEX
8
Layer 1
10
2.193703
20
0.043767
70
0
0
VERTEX
8
Layer 1
10
2.186103
20
0.000042
70
0
0
VERTEX
8
Layer 1
10
2.161973
20
0.001732
70
0
0
VERTEX
8
Layer 1
10
2.162274
20
0.001754
70
0
0
SEQEND
8
Layer 1
0
POLYLINE
8
Layer 1
62
7
70
0
10
0.000000
20
0.000000
66
1
0
VERTEX
8
Layer 1
10
2.240924
20
1.086927
70
0
0
VERTEX
8
Layer 1
10
2.284674
20
1.100942
70
0
0
VERTEX
8
Layer 1
10
2.325574
20
1.106422
70
0
0
VERTEX
8
Layer 1
10
2.382284
20
1.084085
70
0
0
VERTEX
8
Layer 1
10
2.422394
20
1.077615
70
0
0
VERTEX
8
Layer 1
10
2.467794
20
1.095011
70
0
0
VERTEX
8
Layer 1
10
2.485954
20
1.123761
70
0
0
VERTEX
8
Layer 1
10
2.492454
20
1.139117
70
0
0
VERTEX
8
Layer 1
10
2.493404
20
1.209742
70
0
0
VERTEX
8
Layer 1
10
2.483504
20
1.259814
70
0
0
VERTEX
8
Layer 1
10
2.472904
20
1.314022
70
0
0
VERTEX
8
Layer 1
10
2.470704
20
1.325676
70
0
0
VERTEX
8
Layer 1
10
2.468204
20
1.338028
70
0
0
VERTEX
8
Layer 1
10
2.457194
20
1.376876
70
0
0
VERTEX
8
Layer 1
10
2.447394
20
1.410792
70
0
0
VERTEX
8
Layer 1
10
2.437794
20
1.436564
70
0
0
VERTEX
8
Layer 1
10
2.424154
20
1.477096
70
0
0
VERTEX
8
Layer 1
10
2.414654
20
1.502091
70
0
0
VERTEX
8
Layer 1
10
2.355804
20
1.613094
70
0
0
VERTEX
8
Layer 1
10
2.274794
20
1.606004
70
0
0
VERTEX
8
Layer 1
10
2.239824
20
1.559141
70
0
0
VERTEX
8
Layer 1
10
2.225994
20
1.518542
70
0
0
VERTEX
8
Layer 1
10
2.191084
20
1.430437
70
0
0
VERTEX
8
Layer 1
10
2.174764
20
1.385120
70
0
0
VERTEX
8
Layer 1
10
2.165164
20
1.344693
70
0
0
VERTEX
8
Layer 1
10
2.155084
20
1.313561
70
0
0
VERTEX
8
Layer 1
10
2.149184
20
1.295401
70
0
0
VERTEX
8
Layer 1
10
2.141684
20
1.273380
70
0
0
VERTEX
8
Layer 1
10
2.133584
20
1.194887
70
0
0
VERTEX
8
Layer 1
10
2.151694
20
1.104332
70
0
0
VERTEX
8
Layer 1
10
2.207444
20
1.081250
70
0
0
VERTEX
8
Layer 1
10
2.240784
20
1.086930
70
0
0
VERTEX
8
Layer 1
10
2.240924
20
1.086927
70
0
0
SEQEND
8
Layer 1
0
POLYLINE
8
Layer 1
62
7
70
0
10
0.000000
20
0.000000
66
1
0
VERTEX
8
Layer 1
10
3.719211
20
1.358173
70
0
0
VERTEX
8
Layer 1
10
3.745811
20
1.368890
70
0
0
VERTEX
8
Layer 1
10
3.842201
20
1.417568
70
0
0
VERTEX
8
Layer 1
10
3.916661
20
1.489149
70
0
0
VERTEX
8
Layer 1
10
3.930131
20
1.508590
70
0
0
VERTEX
8
Layer 1
10
3.960591
20
1.556528
70
0
0
VERTEX
8
Layer 1
10
3.988391
20
1.608459
70
0
0
VERTEX
8
Layer 1
10
4.003851
20
1.646119
70
0
0
VERTEX
8
Layer 1
10
4.017561
20
1.684962
70
0
0
VERTEX
8
Layer 1
10
4.026661
20
1.716513
70
0
0
VERTEX
8
Layer 1
10
4.033161
20
1.734698
70
0
0
VERTEX
8
Layer 1
10
4.039661
20
1.760593
70
0
0
VERTEX
8
Layer 1
10
4.045361
20
1.786008
70
0
0
VERTEX
8
Layer 1
10
4.055671
20
1.851118
70
0
0
VERTEX
8
Layer 1
10
4.066161
20
1.916336
70
0
0
VERTEX
8
Layer 1
10
4.072061
20
1.989498
70
0
0
VERTEX
8
Layer 1
10
4.079161
20
2.066101
70
0
0
VERTEX
8
Layer 1
10
4.073761
20
2.282712
70
0
0
VERTEX
8
Layer 1
10
4.065661
20
2.299849
70
0
0
VERTEX
8
Layer 1
10
4.039211
20
2.365889
70
0
0
VERTEX
8
Layer 1
10
4.027481
20
2.388813
70
0
0
VERTEX
8
Layer 1
10
4.011311
20
2.410645
70
0
0
VERTEX
8
Layer 1
10
4.000931
20
2.425117
70
0
0
VERTEX
8
Layer 1
10
3.902201
20
2.524947
70
0
0
VERTEX
8
Layer 1
10
3.890871
20
2.534637
70
0
0
VERTEX
8
Layer 1
10
3.790291
20
2.533820
70
0
0
VERTEX
8
Layer 1
10
3.772101
20
2.528000
70
0
0
VERTEX
8
Layer 1
10
3.729021
20
2.514029
70
0
0
VERTEX
8
Layer 1
10
3.724121
20
2.509339
70
0
0
VERTEX
8
Layer 1
10
3.670691
20
2.482959
70
0
0
VERTEX
8
Layer 1
10
3.637611
20
2.459758
70
0
0
VERTEX
8
Layer 1
10
3.556391
20
2.400236
70
0
0
VERTEX
8
Layer 1
10
3.516931
20
2.372362
70
0
0
VERTEX
8
Layer 1
10
3.499161
20
2.359414
70
0
0
VERTEX
8
Layer 1
10
3.479271
20
2.346466
70
0
0
VERTEX
8
Layer 1
10
3.468941
20
2.341566
70
0
0
VERTEX
8
Layer 1
10
3.366440
20
2.269915
70
0
0
VERTEX
8
Layer 1
10
3.205722
20
2.191100
70
0
0
VERTEX
8
Layer 1
10
3.181062
20
2.181430
70
0
0
VERTEX
8
Layer 1
10
3.151572
20
2.171720
70
0
0
VERTEX
8
Layer 1
10
3.136852
20
2.165580
70
0
0
VERTEX
8
Layer 1
10
3.102482
20
2.155538
70
0
0
VERTEX
8
Layer 1
10
3.060252
20
2.145213
70
0
0
VERTEX
8
Layer 1
10
2.940488
20
2.132365
70
0
0
VERTEX
8
Layer 1
10
2.830191
20
2.119658
70
0
0
VERTEX
8
Layer 1
10
2.810671
20
2.113418
70
0
0
VERTEX
8
Layer 1
10
2.769661
20
2.100739
70
0
0
VERTEX
8
Layer 1
10
2.647849
20
1.958607
70
0
0
VERTEX
8
Layer 1
10
2.641349
20
1.945099
70
0
0
VERTEX
8
Layer 1
10
2.634849
20
1.890072
70
0
0
VERTEX
8
Layer 1
10
2.640549
20
1.835045
70
0
0
VERTEX
8
Layer 1
10
2.650579
20
1.806443
70
0
0
VERTEX
8
Layer 1
10
2.664259
20
1.770045
70
0
0
VERTEX
8
Layer 1
10
2.673659
20
1.753331
70
0
0
VERTEX
8
Layer 1
10
2.679659
20
1.744411
70
0
0
VERTEX
8
Layer 1
10
2.687759
20
1.735161
70
0
0
VERTEX
8
Layer 1
10
2.781859
20
1.634361
70
0
0
VERTEX
8
Layer 1
10
2.808769
20
1.614715
70
0
0
VERTEX
8
Layer 1
10
2.871299
20
1.573228
70
0
0
VERTEX
8
Layer 1
10
2.916499
20
1.546570
70
0
0
VERTEX
8
Layer 1
10
2.956959
20
1.527885
70
0
0
VERTEX
8
Layer 1
10
2.977929
20
1.518455
70
0
0
VERTEX
8
Layer 1
10
3.068559
20
1.475738
70
0
0
VERTEX
8
Layer 1
10
3.120349
20
1.451515
70
0
0
VERTEX
8
Layer 1
10
3.128449
20
1.446405
70
0
0
VERTEX
8
Layer 1
10
3.162439
20
1.433677
70
0
0
VERTEX
8
Layer 1
10
3.202899
20
1.420949
70
0
0
VERTEX
8
Layer 1
10
3.217469
20
1.415239
70
0
0
VERTEX
8
Layer 1
10
3.298749
20
1.388361
70
0
0
VERTEX
8
Layer 1
10
3.317579
20
1.382261
70
0
0
VERTEX
8
Layer 1
10
3.351949
20
1.372219
70
0
0
VERTEX
8
Layer 1
10
3.393789
20
1.362134
70
0
0
VERTEX
8
Layer 1
10
3.424159
20
1.355994
70
0
0
VERTEX
8
Layer 1
10
3.447749
20
1.348774
70
0
0
VERTEX
8
Layer 1
10
3.575987
20
1.344534
70
0
0
VERTEX
8
Layer 1
10
3.719183
20
1.358192
70
0
0
VERTEX
8
Layer 1
10
3.719211
20
1.358173
70
0
0
SEQEND
8
Layer 1
0
POLYLINE
8
Layer 1
62
7
70
0
10
0.000000
20
0.000000
66
1
0
VERTEX
8
Layer 1
10
1.167951
20
1.380910
70
0
0
VERTEX
8
Layer 1
10
1.221371
20
1.390640
70
0
0
VERTEX
8
Layer 1
10
1.275001
20
1.400330
70
0
0
VERTEX
8
Layer 1
10
1.313281
20
1.409790
70
0
0
VERTEX
8
Layer 1
10
1.355361
20
1.419911
70
0
0
VERTEX
8
Layer 1
10
1.387121
20
1.430579
70
0
0
VERTEX
8
Layer 1
10
1.415011
20
1.440869
70
0
0
VERTEX
8
Layer 1
10
1.429511
20
1.446649
70
0
0
VERTEX
8
Layer 1
10
1.457821
20
1.455749
70
0
0
VERTEX
8
Layer 1
10
1.494971
20
1.469155
70
0
0
VERTEX
8
Layer 1
10
1.518451
20
1.479476
70
0
0
VERTEX
8
Layer 1
10
1.533191
20
1.485456
70
0
0
VERTEX
8
Layer 1
10
1.568391
20
1.498404
70
0
0
VERTEX
8
Layer 1
10
1.599401
20
1.511352
70
0
0
VERTEX
8
Layer 1
10
1.636651
20
1.525247
70
0
0
VERTEX
8
Layer 1
10
1.823603
20
1.625449
70
0
0
VERTEX
8
Layer 1
10
1.850223
20
1.640826
70
0
0
VERTEX
8
Layer 1
10
1.975057
20
1.780328
70
0
0
VERTEX
8
Layer 1
10
1.994587
20
1.815618
70
0
0
VERTEX
8
Layer 1
10
2.005537
20
1.882087
70
0
0
VERTEX
8
Layer 1
10
2.012637
20
1.945319
70
0
0
VERTEX
8
Layer 1
10
1.988037
20
1.993413
70
0
0
VERTEX
8
Layer 1
10
1.899617
20
2.100462
70
0
0
VERTEX
8
Layer 1
10
1.883877
20
2.110232
70
0
0
VERTEX
8
Layer 1
10
1.850567
20
2.124030
70
0
0
VERTEX
8
Layer 1
10
1.821897
20
2.133680
70
0
0
VERTEX
8
Layer 1
10
1.793287
20
2.139300
70
0
0
VERTEX
8
Layer 1
10
1.764767
20
2.144770
70
0
0
VERTEX
8
Layer 1
10
1.678747
20
2.154660
70
0
0
VERTEX
8
Layer 1
10
1.589817
20
2.165370
70
0
0
VERTEX
8
Layer 1
10
1.568637
20
2.171660
70
0
0
VERTEX
8
Layer 1
10
1.553747
20
2.178130
70
0
0
VERTEX
8
Layer 1
10
1.535767
20
2.184600
70
0
0
VERTEX
8
Layer 1
10
1.505017
20
2.192920
70
0
0
VERTEX
8
Layer 1
10
1.458827
20
2.212788
70
0
0
VERTEX
8
Layer 1
10
1.306127
20
2.286320
70
0
0
VERTEX
8
Layer 1
10
1.288327
20
2.301087
70
0
0
VERTEX
8
Layer 1
10
1.270287
20
2.310538
70
0
0
VERTEX
8
Layer 1
10
1.240247
20
2.330474
70
0
0
VERTEX
8
Layer 1
10
1.221947
20
2.346446
70
0
0
VERTEX
8
Layer 1
10
1.178277
20
2.378815
70
0
0
VERTEX
8
Layer 1
10
1.135247
20
2.411184
70
0
0
VERTEX
8
Layer 1
10
1.113537
20
2.430605
70
0
0
VERTEX
8
Layer 1
10
1.091367
20
2.450026
70
0
0
VERTEX
8
Layer 1
10
1.054527
20
2.475920
70
0
0
VERTEX
8
Layer 1
10
1.019437
20
2.501816
70
0
0
VERTEX
8
Layer 1
10
0.991467
20
2.519856
70
0
0
VERTEX
8
Layer 1
10
0.941987
20
2.550606
70
0
0
VERTEX
8
Layer 1
10
0.912347
20
2.568370
70
0
0
VERTEX
8
Layer 1
10
0.850847
20
2.578515
70
0
0
VERTEX
8
Layer 1
10
0.762337
20
2.567687
70
0
0
VERTEX
8
Layer 1
10
0.731587
20
2.546212
70
0
0
VERTEX
8
Layer 1
10
0.725887
20
2.542272
70
0
0
VERTEX
8
Layer 1
10
0.621569
20
2.413507
70
0
0
VERTEX
8
Layer 1
10
0.594849
20
2.365862
70
0
0
VERTEX
8
Layer 1
10
0.586149
20
2.335145
70
0
0
VERTEX
8
Layer 1
10
0.575649
20
2.304013
70
0
0
VERTEX
8
Layer 1
10
0.589059
20
1.896514
70
0
0
VERTEX
8
Layer 1
10
0.598859
20
1.843080
70
0
0
VERTEX
8
Layer 1
10
0.609289
20
1.792526
70
0
0
VERTEX
8
Layer 1
10
0.615189
20
1.768275
70
0
0
VERTEX
8
Layer 1
10
0.624289
20
1.730251
70
0
0
VERTEX
8
Layer 1
10
0.637959
20
1.691408
70
0
0
VERTEX
8
Layer 1
10
0.646559
20
1.663458
70
0
0
VERTEX
8
Layer 1
10
0.651259
20
1.653748
70
0
0
VERTEX
8
Layer 1
10
0.667349
20
1.614906
70
0
0
VERTEX
8
Layer 1
10
0.683239
20
1.585774
70
0
0
VERTEX
8
Layer 1
10
0.758049
20
1.490622
70
0
0
VERTEX
8
Layer 1
10
0.880298
20
1.414220
70
0
0
VERTEX
8
Layer 1
10
0.927548
20
1.393661
70
0
0
VERTEX
8
Layer 1
10
1.019798
20
1.381739
70
0
0
VERTEX
8
Layer 1
10
1.168096
20
1.380882
70
0
0
VERTEX
8
Layer 1
10
1.167951
20
1.380910
70
0
0
SEQEND
8
Layer 1
0
POLYLINE
8
Layer 1
62
7
70
0
10
0.000000
20
0.000000
66
1
0
VERTEX
8
Layer 1
10
3.328060
20
0.647645
70
0
0
VERTEX
8
Layer 1
10
3.331960
20
0.651555
70
0
0
VERTEX
8
Layer 1
10
3.331448
20
0.639147
70
0
0
VERTEX
8
Layer 1
10
3.328048
20
0.647647
70
0
0
VERTEX
8
Layer 1
10
3.328060
20
0.647645
70
0
0
SEQEND
8
Layer 1
0
POLYLINE
8
Layer 1
62
7
70
0
10
0.000000
20
0.000000
66
1
0
VERTEX
8
Layer 1
10
3.940937
20
0.803527
70
0
0
VERTEX
8
Layer 1
10
3.957127
20
0.803527
70
0
0
VERTEX
8
Layer 1
10
3.949027
20
0.800257
70
0
0
VERTEX
8
Layer 1
10
3.940927
20
0.803527
70
0
0
VERTEX
8
Layer 1
10
3.940937
20
0.803527
70
0
0
SEQEND
8
Layer 1
0
POLYLINE
8
Layer 1
62
7
70
0
10
0.000000
20
0.000000
66
1
0
VERTEX
8
Layer 1
10
4.538653
20
2.369666
70
0
0
VERTEX
8
Layer 1
10
4.542553
20
2.373576
70
0
0
VERTEX
8
Layer 1
10
4.542042
20
2.361168
70
0
0
VERTEX
8
Layer 1
10
4.538642
20
2.369668
70
0
0
VERTEX
8
Layer 1
10
4.538653
20
2.369666
70
0
0
SEQEND
8
Layer 1
0
POLYLINE
8
Layer 1
62
7
70
0
10
0.000000
20
0.000000
66
1
0
VERTEX
8
Layer 1
10
0.117315
20
2.376686
70
0
0
VERTEX
8
Layer 1
10
0.112415
20
2.396107
70
0
0
VERTEX
8
Layer 1
10
0.116215
20
2.400557
70
0
0
VERTEX
8
Layer 1
10
0.121115
20
2.381136
70
0
0
VERTEX
8
Layer 1
10
0.117315
20
2.376686
70
0
0
VERTEX
8
Layer 1
10
0.117315
20
2.376686
70
0
0
SEQEND
8
Layer 1
0
POLYLINE
8
Layer 1
62
7
70
0
10
0.000000
20
0.000000
66
1
0
VERTEX
8
Layer 1
10
0.000038
20
3.395420
70
0
0
VERTEX
8
Layer 1
10
0.009738
20
3.401690
70
0
0
VERTEX
8
Layer 1
10
0.019438
20
3.399150
70
0
0
VERTEX
8
Layer 1
10
0.009738
20
3.392880
70
0
0
VERTEX
8
Layer 1
10
0.000038
20
3.395420
70
0
0
VERTEX
8
Layer 1
10
0.000038
20
3.395420
70
0
0
SEQEND
8
Layer 1
0
POLYLINE
8
Layer 1
62
7
70
0
10
0.000000
20
0.000000
66
1
0
VERTEX
8
Layer 1
10
1.125258
20
5.179923
70
0
0
VERTEX
8
Layer 1
10
1.137668
20
5.179412
70
0
0
VERTEX
8
Layer 1
10
1.129168
20
5.176012
70
0
0
VERTEX
8
Layer 1
10
1.125268
20
5.179923
70
0
0
VERTEX
8
Layer 1
10
1.125258
20
5.179923
70
0
0
SEQEND
8
Layer 1
0
POLYLINE
8
Layer 1
62
7
70
0
10
0.000000
20
0.000000
66
1
0
VERTEX
8
Layer 1
10
1.950867
20
5.489266
70
0
0
VERTEX
8
Layer 1
10
1.960567
20
5.498763
70
0
0
VERTEX
8
Layer 1
10
1.949437
20
5.473294
70
0
0
VERTEX
8
Layer 1
10
1.950837
20
5.489266
70
0
0
VERTEX
8
Layer 1
10
1.950867
20
5.489266
70
0
0
SEQEND
8
Layer 1
 0 
ENDSEC
 0 
EOF