<?xml version="1.0" encoding="UTF-8" standalone="no"?>
<!-- Created with Inkscape (http://www.inkscape.org/) -->

<svg
   width="142.87691mm"
   height="139.8627mm"
   viewBox="0 0 142.87691 139.8627"
   version="1.1"
   id="svg1"
   xml:space="preserve"
   inkscape:version="1.3.2 (091e20e, 2023-11-25, custom)"
   sodipodi:docname="logo.svg"
   xmlns:inkscape="http://www.inkscape.org/namespaces/inkscape"
   xmlns:sodipodi="http://sodipodi.sourceforge.net/DTD/sodipodi-0.dtd"
   xmlns="http://www.w3.org/2000/svg"
   xmlns:svg="http://www.w3.org/2000/svg"><sodipodi:namedview
     id="namedview1"
     pagecolor="#505050"
     bordercolor="#eeeeee"
     borderopacity="1"
     inkscape:showpageshadow="0"
     inkscape:pageopacity="0"
     inkscape:pagecheckerboard="0"
     inkscape:deskcolor="#505050"
     inkscape:document-units="mm"
     inkscape:zoom="0.5"
     inkscape:cx="406"
     inkscape:cy="393"
     inkscape:window-width="1920"
     inkscape:window-height="1009"
     inkscape:window-x="-8"
     inkscape:window-y="-8"
     inkscape:window-maximized="1"
     inkscape:current-layer="layer1" /><defs
     id="defs1" /><g
     inkscape:groupmode="layer"
     id="layer2"
     inkscape:label="Layer 2"
     style="display:inline"
     transform="translate(-36.774205,-27.81622)" /><g
     inkscape:label="Layer 1"
     inkscape:groupmode="layer"
     id="layer1"
     transform="translate(-36.774205,-27.81622)"><g
       id="g4"
       transform="translate(-13.470384,15.341271)"><path
         style="display:inline;fill:#000000;stroke-width:1.77371"
         d="m 90.903821,149.8636 c -3.817456,-2.57404 -4.947688,-7.91091 -2.477964,-11.70089 0.85508,-1.31217 7.344734,-6.56887 21.266943,-17.2265 l 20.03638,-15.33804 0.59954,7.25173 c 0.32973,3.98846 0.56732,7.49341 0.52803,7.78884 -0.0399,0.29535 -1.24978,1.03068 -2.68985,1.63395 -7.8789,3.30056 -16.03113,10.86421 -23.88457,22.16015 -2.14275,3.08203 -4.353847,5.74189 -5.137704,6.18045 -2.099563,1.17473 -5.899382,0.8291 -8.240784,-0.74969 z M 133.8145,123.44529 c 0.0122,-0.0961 -0.39117,-4.57548 -0.89628,-9.95412 -0.50481,-5.37863 -0.87755,-10.10551 -0.82819,-10.50421 0.0493,-0.39865 10.15395,-8.542897 22.45474,-18.098297 24.95241,-19.383347 24.21046,-18.942371 30.49715,-18.126953 2.58606,0.336468 3.71273,0.735314 5.46421,1.939621 3.68087,2.530949 3.72027,2.296253 -1.44991,8.63262 -17.84549,21.870528 -38.113,39.323579 -52.40052,45.123859 -1.57454,0.63925 -2.8531,1.08363 -2.8412,0.98748 z m 10.17137,-5.91848 c 10.55347,-6.11778 27.36461,-21.4507 41.48041,-37.83294 5.96857,-6.926907 5.82389,-6.740442 5.2811,-6.807589 -0.24336,-0.03017 -3.41757,3.247812 -7.05383,7.284286 -16.41686,18.223883 -32.4722,31.868033 -44.44593,37.770953 -2.368,1.1674 -4.39524,2.1733 -4.50502,2.23531 -0.10972,0.0622 0.0214,0.45787 0.29146,0.87959 0.42649,0.66594 0.86461,0.59028 3.33043,-0.57509 1.56165,-0.73803 4.09125,-2.06758 5.62128,-2.95457 z m -1.73811,-14.46668 c 0.15346,-1.24057 0.0169,-1.41652 -1.21798,-1.56932 -0.97143,-0.12019 -1.47119,0.0759 -1.65727,0.65009 -0.47787,1.4747 0.0196,2.29342 1.40065,2.3053 1.09819,0.009 1.32864,-0.20804 1.4746,-1.38607 z"
         id="path3" /><path
         style="fill:#000000;stroke-width:1.72506"
         d="m 130.60123,150.44346 c -1.48704,-1.87012 -3.92581,-6.60434 -6.17317,-11.98359 -4.26515,-10.20889 -12.47224,-20.45931 -18.85487,-23.54912 -1.92053,-0.92971 -1.92053,-0.92971 -5.50898,0.2597 -1.973623,0.65424 -4.275371,1.33325 -5.114976,1.509 -1.526554,0.31952 -1.526554,0.31952 1.035246,-2.33262 1.408996,-1.45869 3.482421,-4.26376 4.60759,-6.23351 1.82534,-3.19544 2.11958,-4.09897 2.7306,-8.385132 0.37665,-2.642081 0.79376,-4.898404 0.92693,-5.01403 1.01215,-0.878906 18.30087,16.368742 27.72236,27.656512 7.06105,8.45975 10.23798,14.83834 9.52153,19.11722 -0.70808,4.22884 -5.96972,11.01823 -8.40588,10.84656 -0.62111,-0.0437 -1.62405,-0.80655 -2.48637,-1.89104 z M 66.316558,118.67214 C 55.8732,114.27025 49.526655,104.0788 50.309584,92.967691 c 0.79716,-11.313064 8.959654,-20.794267 20.115915,-23.365813 4.579862,-1.05569 12.458035,-0.164835 16.629774,1.880398 5.987885,2.93566 11.259672,8.995033 13.407657,15.410742 0.86962,2.597394 0.98986,3.8682 0.81645,8.629196 -0.2433,6.679916 -1.313638,10.039256 -4.587765,14.398946 -5.695299,7.58365 -13.262659,11.0154 -22.76156,10.32219 -3.648255,-0.26604 -5.351344,-0.61772 -7.613504,-1.57119 z M 77.819296,98.79062 c 2.520871,-1.08636 3.315449,-3.934465 1.743864,-6.250624 -1.218756,-1.796188 -2.740348,-2.426989 -4.672248,-1.936906 -1.941333,0.492445 -3.036037,1.79411 -3.175693,3.776055 -0.138212,1.961432 0.410406,3.145403 1.896492,4.092805 1.535869,0.979161 2.504681,1.052538 4.207586,0.318629 z"
         id="path2" /><path
         style="fill:#000000"
         d="m 119.56753,99.277137 v -2.38125 h -0.36279 -0.36279 l -0.17592,1.32614 c -0.31315,2.360593 -0.62945,2.579943 -2.18918,1.518126 l -0.87446,-0.595306 -0.002,-1.90892 -0.002,-1.90892 -0.52917,-0.28321 -0.52916,-0.2832 v 2.12598 c 0,2.38656 -0.0909,2.47938 -1.23927,1.26608 -1.17133,-1.23753 -1.42064,-1.85117 -1.59447,-3.92463 -0.18732,-2.23437 -0.41592,-2.44585 -1.13024,-1.04565 -0.66116,1.29595 -0.73204,1.30216 -1.83805,0.16104 l -0.87875,-0.90663 0.4201,-1.86027 0.4201,-1.86026 -0.38538,-0.73883 c -0.58026,-1.11247 -0.47879,-1.63324 0.53741,-2.75805 2.20867,-2.44473 -2.24733,-7.82572 -7.44615,-8.99188 l -1.36072,-0.30522 -0.888227,0.3159 -0.88824,0.31591 -1.13469,-1.27233 c -0.6241,-0.69978 -1.44116,-1.8962 -1.81569,-2.65871 l -0.68098,-1.38637 0.0103,-1.65633 c 0.006,-0.91099 0.14307,-2.00457 0.30535,-2.43018 l 0.29506,-0.77384 0.96811,1.4353 0.96812,1.4353 0.14962,-0.6291 0.14962,-0.6291 -0.78952,-1.59292 -0.78953,-1.59292 -0.10548,-3.38547 -0.10548,-3.38546 0.5644,-1.16589 0.56439,-1.16588 1.25236,-0.6782 c 1.07722,-0.58336 2.763147,-1.17779 8.396117,-2.96036 l 1.05833,-0.33491 -1.05833,-0.3004 c -1.43633,-0.40769 -3.1494,-0.37496 -4.89479,0.0935 -2.014007,0.54058 -2.061027,0.52775 -2.377757,-0.64848 l -0.28148,-1.04535 0.12958,-4.04788 0.12957,-4.04788 -0.39112,1.7198 c -0.21511,0.94588 -0.46644,3.71408 -0.5585,6.15156 -0.0921,2.43747 -0.27196,4.43177 -0.39977,4.43177 -0.6519,0 -1.49995,-4.24291 -1.71871,-8.59896 l -0.15944,-3.175 0.30227,-3.175 c 0.48154,-5.0579 1.68745,-9.5969 2.52286,-9.49599 0.13212,0.016 6.040987,6.55619 13.130827,14.53384 l 12.89059,14.50483 -0.23237,0.81025 c -0.12781,0.44563 -0.23238,1.83162 -0.23238,3.07996 v 2.26972 l 0.43844,1.30391 c 1.31053,3.89747 4.64276,6.68455 9.00391,7.53085 l 1.63715,0.3177 1.62052,-0.28545 c 5.35966,-0.94409 8.12666,-4.65037 9.42619,-12.62599 l 0.45836,-2.81307 0.77104,-1.06438 0.77103,-1.06439 0.38599,0.38599 c 0.2123,0.21229 0.50315,1.20892 0.64635,2.21473 l 0.26037,1.82874 -0.27321,3.90866 c -0.60406,8.64218 -1.18438,9.72526 -5.46762,10.20447 -2.57663,0.28827 -3.6468,0.81091 -4.29605,2.09805 -0.99479,1.97218 -1.4222,7.18321 -0.80787,9.84963 l 0.27416,1.18997 -0.29937,1.06925 -0.29937,1.06925 0.4144,1.78684 0.41439,1.78684 -0.43312,0.66104 c -0.23822,0.36357 -0.662,0.78352 -0.94174,0.93323 l -0.50861,0.2722 -0.3515,-0.29171 c -0.19332,-0.16045 -0.49861,-0.64689 -0.67841,-1.08098 l -0.32693,-0.78926 -0.3248,0.26956 c -0.17865,0.14826 -0.39858,1.05956 -0.48874,2.0251 -0.16864,1.80584 -0.55449,2.64502 -1.70749,3.71359 -0.99345,0.920693 -1.11539,0.784426 -1.11539,-1.24649 v -1.86139 l -0.52916,0.2832 -0.52917,0.2832 -0.002,1.24746 -0.002,1.24746 -0.87446,0.595306 c -0.48095,0.327427 -1.06599,0.595317 -1.30008,0.595317 h -0.42563 l -0.17307,-0.859893 c -0.31622,-1.57117 -0.42988,-1.78594 -0.94514,-1.78594 h -0.51133 v 1.984376 1.984367 h -1.71979 -1.7198 l -0.0313,-1.25677 c -0.0172,-0.691217 -0.11559,-1.613953 -0.21861,-2.050513 l -0.1873,-0.79375 -0.20935,2.05052 -0.20936,2.050513 h -1.68832 -1.6887 z m 7.91673,-16.17702 0.60818,-0.56661 -0.17703,-1.33451 c -0.63686,-4.8009 -3.79861,-9.4557 -5.66574,-8.34123 -4.06283,2.42506 -4.81927,7.52704 -1.30074,8.77312 l 0.45537,0.16126 0.39413,-0.39414 c 0.21678,-0.21677 0.45301,-0.77726 0.52497,-1.24553 0.072,-0.46826 0.24115,-1.4467 0.37599,-2.1743 l 0.24517,-1.32292 0.0327,1.85208 c 0.0437,2.4731 0.41098,3.6649 1.38076,4.48091 l 0.80631,0.67847 h 0.85585 0.85585 z m -11.47411,-11.4058 c 0.95459,-1.20054 2.26944,-2.98006 2.92191,-3.95448 l 1.1863,-1.77167 0.38145,-1.80021 c 0.20979,-0.99011 0.37989,-2.39551 0.37799,-3.12312 l -0.003,-1.32291 -0.29091,0.52916 c -0.95581,1.73859 -2.8392,3.13006 -4.64199,3.42954 l -1.11248,0.18481 -1.5333,-0.31147 c -3.69592,-0.75079 -6.8572,-2.47721 -9.75813,-5.32905 l -1.87482,-1.84309 -0.62356,2.06692 -0.62356,2.06693 -7.3e-4,2.38125 -7.3e-4,2.38125 0.59394,1.32291 c 1.12126,2.49747 4.71473,5.13224 8.7699,6.43019 0.9459,0.30276 1.8984,0.60753 2.11668,0.67727 0.21828,0.0697 0.84306,0.13621 1.3884,0.1477 l 0.99153,0.0209 z m 26.84071,-15.69339 c -0.65484,-0.34855 -1.96453,-0.83768 -2.91041,-1.08695 l -1.71979,-0.45321 -3.175,-0.0153 -3.175,-0.0153 -1.28282,0.63152 -1.28282,0.63153 -1.00787,-1.0284 c -1.95629,-1.99612 -27.30361,-30.13704 -27.43492,-30.4586 -0.12861,-0.31493 2.42811,-3.775 2.78942,-3.775 0.098,0 0.3086,0.20836 0.46802,0.46302 1.97498,3.15475 11.58119,13.95 12.42203,13.9596 0.13623,0.002 1.11212,0.5671 2.16864,1.25677 2.36823,1.54593 2.45857,1.55054 1.2399,0.0633 -0.53659,-0.65484 -1.179,-1.19063 -1.42756,-1.19063 -1.04679,0 -3.50334,-2.11095 -6.6424,-5.70793 -3.08897,-3.53956 -6.37603,-7.98543 -6.73103,-9.10393 l -0.17745,-0.559106 0.70536,-0.924785 c 1.07114,-1.404334 3.20492,-2.984977 5.55599,-4.115718 l 2.11667,-1.018007 2.47988,-0.539426 2.47988,-0.539426 3.60554,0.0028 3.60554,0.0028 2.36407,0.413386 c 11.80692,2.064579 18.99271,10.820912 21.20381,25.838172 l 0.44143,2.99814 -0.13629,2.91041 c -0.14436,3.08276 -0.77328,6.35661 -1.37903,7.1786 l -0.36429,0.49432 -0.92695,-0.89475 c -0.50983,-0.49211 -1.19548,-1.50415 -1.52367,-2.24896 l -0.59671,-1.35421 -0.11223,-2.70911 c -0.11343,-2.73785 -0.5829,-3.58409 -0.58007,-1.04558 0.004,3.44545 0.82588,5.88604 2.64694,7.85859 l 1.05133,1.13881 -0.31325,0.42135 c -0.53888,0.72486 -2.96453,3.2006 -3.11293,3.17722 -0.0777,-0.0123 -0.67711,-0.30746 -1.33196,-0.65602 z"
         id="path4"
         sodipodi:nodetypes="ccccccsscccccssssscccsssccccsccscccccccccccsscscscccscsscscscsscsscsscccsscsssscccccsscsscsssscccccsscsscccccssccccccccssscscscsscccccscsccsscsscccccsscsccsscccccsssccssssscsscccccsscsscsscscscscss" /></g><path
       style="fill:#f9f9f9;stroke-width:1.41421"
       d="m 219.2031,510.94922 c -19.31354,-2.12043 -43.41751,-16.55453 -58.11895,-34.80318 -42.53821,-52.802 -18.28811,-130.59869 47.51235,-152.42426 8.23013,-2.72988 12.64203,-3.25632 26.16295,-3.12186 30.20208,0.30037 48.17253,7.51987 67.88225,27.27122 13.42741,13.45578 21.27267,25.70637 25.67304,40.08912 2.60251,8.50638 2.8717,12.13231 2.25741,30.40559 -0.84407,25.10868 -3.52528,34.83 -13.8737,50.30218 -13.99739,20.92784 -36.09618,36.44742 -58.60447,41.15688 -9.13996,1.91237 -27.00805,2.42893 -38.89088,1.12431 z m 23.1425,-78.7356 c 10.13804,-4.23594 13.71884,-15.16372 8.02745,-24.4979 -2.76619,-4.53671 -9.33817,-8.90749 -13.39343,-8.90749 -5.53466,0 -13.39733,4.63404 -15.54624,9.16252 -4.34084,9.14765 -2.13933,17.39488 6.13119,22.96839 5.53796,3.73202 8.3243,3.97227 14.78103,1.27448 z"
       id="path1"
       transform="scale(0.26458333)" /><path
       style="fill:#f9f9f9;stroke-width:1.41421"
       d="m 485.78236,267.55245 c -11.43798,-4.84531 -35.83151,-6.16341 -43.23277,-2.33608 l -4.77766,2.47063 -6.40038,-7.04784 C 414.80482,242.39655 339.32226,158.51455 335.39536,153.98307 l -4.4334,-5.11595 4.30056,-5.93675 c 2.36531,-3.26521 4.81898,-5.736 5.45261,-5.49065 0.63363,0.24536 5.01201,5.26146 9.72973,11.1469 19.25554,24.02163 33.71304,38.75642 44.1145,44.9606 5.59277,3.33593 10.54042,5.6936 10.99476,5.23926 1.14025,-1.14025 -6.8465,-9.28186 -9.10529,-9.28186 -4.81504,0 -36.90485,-35.06108 -46.91714,-51.26131 -3.15879,-5.11103 -3.17465,-5.32078 -0.66762,-8.83251 2.85452,-3.99851 18.84628,-15.24219 25.29035,-17.78146 14.90513,-5.87332 43.36676,-7.39848 61.85129,-3.31438 13.43934,2.96937 31.03623,11.57234 40.16093,19.63433 9.63294,8.51104 20.24636,24.55896 25.92411,39.19831 5.50045,14.18224 11.23751,41.10526 11.24323,52.76261 0.005,9.90654 -2.19747,25.17647 -4.44302,30.80563 -1.52104,3.81299 -1.65679,3.85704 -4.35804,1.41421 -4.30503,-3.89319 -8.13536,-12.44978 -8.22546,-18.37492 -0.0448,-2.9478 -0.58355,-7.90522 -1.19716,-11.01649 -1.68385,-8.53771 -3.56031,-2.55754 -2.47018,7.87227 1.04925,10.03869 4.03545,17.66387 8.91103,22.75415 4.31907,4.50923 3.7398,7.40001 -2.69778,13.46301 l -4.58573,4.3189 z"
       id="path5"
       transform="scale(0.26458333)" /><path
       style="fill:#f9f9f9;stroke-width:1.41421"
       d="m 401.63665,432.04224 c 0,-6.84767 -0.49498,-9.19238 -1.94057,-9.19238 -1.18247,0 -2.30761,2.29532 -2.88011,5.87552 -1.29971,8.12799 -1.87522,8.64814 -6.52779,5.8998 -3.60195,-2.12773 -4.13172,-3.32459 -4.49885,-10.16377 -0.55615,-10.36043 -3.95167,-11.84644 -3.95167,-1.7294 0,3.9539 -0.5902,7.18891 -1.31157,7.18891 -2.4507,0 -7.09608,-7.33742 -7.92513,-12.51784 -2.06599,-12.90962 -3.16636,-14.34421 -6.0865,-7.93521 -1.34343,2.94853 -2.11096,3.3339 -4.30326,2.16061 -3.8491,-2.05997 -4.57896,-5.07178 -2.96946,-12.25366 1.01433,-4.52618 0.9577,-7.20356 -0.19807,-9.36312 -1.32722,-2.47995 -1.02936,-4.10304 1.65464,-9.01633 4.63789,-8.49006 2.57202,-14.8405 -7.95875,-24.46503 -8.88564,-8.12097 -22.65496,-13.56191 -28.60043,-11.30145 -3.91769,1.48951 -8.24298,-2.67268 -13.80163,-13.28117 -2.99946,-5.72437 -3.39332,-7.86408 -2.57835,-14.00759 l 0.9619,-7.25115 3.93597,4.81519 c 3.46928,4.24426 4.0539,4.50917 4.93054,2.23419 0.58911,-1.52882 -0.20637,-5.27622 -1.95132,-9.19238 -4.29299,-9.6347 -5.49849,-27.29057 -2.34136,-34.29184 2.8374,-6.29222 6.85084,-8.47812 28.57777,-15.56472 8.54416,-2.78682 13.96218,-5.24365 13.21391,-5.99192 -1.67299,-1.67299 -16.23849,-1.98241 -23.72232,-0.50394 -5.91571,1.16868 -5.92719,1.16262 -6.82126,-3.60318 -0.49257,-2.62562 -0.68979,-10.94969 -0.43827,-18.49794 0.25152,-7.54826 0.0596,-13.72268 -0.42658,-13.72094 -1.49609,0.005 -2.71933,8.47992 -3.63129,25.15743 -0.48005,8.77902 -1.33973,16.25043 -1.9104,16.60312 -0.57067,0.35269 -1.88861,-3.64816 -2.92876,-8.8908 -2.68611,-13.53867 -2.28676,-46.37586 0.73209,-60.19818 2.55529,-11.69983 4.97124,-18.25304 6.49086,-17.6063 1.21078,0.51531 22.933,24.519 63.45009,70.11421 l 33.03443,37.17474 0.19959,14.43286 c 0.14713,10.6397 0.85512,15.74816 2.69386,19.43749 4.53011,9.08939 10.84415,15.27669 20.38056,19.97144 7.72061,3.80085 10.95933,4.59223 18.68799,4.56641 22.96259,-0.0767 35.19128,-13.28261 41.51211,-44.82931 1.58817,-7.9264 4.05841,-15.91489 5.48942,-17.7522 l 2.60184,-3.34055 1.6654,4.04766 c 3.32194,8.07385 0.56473,47.34948 -3.93485,56.05072 -2.23435,4.32075 -9.3663,8.10102 -15.28359,8.10102 -1.9538,0 -6.06147,1.00395 -9.12814,2.23099 -8.78023,3.51315 -10.51709,9.27075 -10.84567,35.95277 -0.14846,12.05617 0.32947,24.35943 1.06208,27.34058 1.04284,4.24352 0.84573,6.16245 -0.90791,8.83884 -2.85893,4.3633 -4.6521,4.32213 -6.69137,-0.1536 -2.8346,-6.22125 -4.68609,-3.85431 -7.44329,9.51545 -0.4335,2.10207 -2.35452,5.60225 -4.26893,7.77818 l -3.48074,3.9562 -0.0447,-7.47437 c -0.042,-7.03065 -0.21262,-7.38452 -2.87312,-5.96066 -1.98672,1.06326 -2.82843,2.96111 -2.82843,6.3774 0,3.96241 -0.77803,5.26602 -4.19868,7.0349 -4.18557,2.16444 -4.20242,2.15684 -5.39264,-2.43639 -0.65993,-2.54674 -2.26095,-4.8131 -3.57949,-5.06703 -1.9848,-0.38224 -2.38554,0.74585 -2.38554,6.71535 v 7.17476 h -6.36396 -6.36396 v -6.28049 c 0,-3.45428 -0.63639,-6.67382 -1.41421,-7.15454 -0.81325,-0.50261 -1.42242,0.8141 -1.43353,3.09852 -0.0414,8.52052 -1.30929,10.33651 -7.21669,10.33651 h -5.49192 z m 30.19412,-59.87039 c 6.40385,-7.07617 -8.2988,-39.83166 -17.87886,-39.83166 -7.44559,0 -16.59605,12.31159 -16.51292,22.21752 0.0496,5.9166 1.82565,8.96041 6.76294,11.59074 3.64309,1.94085 7.33422,0.0992 7.33422,-3.65929 0,-1.1174 0.63639,-1.63831 1.41421,-1.15759 0.77782,0.48072 1.41421,2.02344 1.41421,3.42828 0,1.40483 1.31899,4.23105 2.93108,6.28049 3.55699,4.52198 10.94621,5.09721 14.53512,1.13151 z m -40.38465,-47.25628 c 5.42706,-7.19482 10.57154,-14.46229 11.43218,-16.14995 1.9499,-3.82363 4.73303,-22.85032 3.60857,-24.66974 -0.45622,-0.73818 -2.23027,0.73647 -3.94233,3.277 -1.71207,2.54053 -5.63961,6.08909 -8.72788,7.88569 -4.68188,2.72368 -6.90769,3.13284 -13.39321,2.46198 -10.82338,-1.11956 -25.88132,-8.62954 -37.70249,-18.80372 l -9.94164,-8.5565 -2.34089,7.42615 c -3.26166,10.34718 -3.08834,26.34319 0.35803,33.04329 4.93135,9.58707 15.48043,17.29459 32.00728,23.38562 16.50825,6.08419 17.21007,5.85632 28.64238,-9.29982 z"
       id="path6"
       transform="scale(0.26458333)" /><path
       style="fill:#f9f9f9;stroke-width:1.41421"
       d="m 455.35401,522.29366 c -0.0125,-0.63579 -1.28242,-14.83848 -2.82202,-31.56155 -1.53959,-16.72308 -2.77221,-33.58758 -2.73915,-37.47666 l 0.0601,-7.07107 15.84338,-12.87882 c 44.5764,-36.2354 125.16876,-98.49354 144.10798,-111.32439 17.09963,-11.58455 22.20171,-13.10645 36.97814,-11.03017 15.9759,2.24483 33.15353,12.316 31.07488,18.21906 -2.69346,7.64897 -39.06044,50.11521 -69.74551,81.44282 -51.14208,52.213 -92.09399,84.62781 -130.69494,103.44944 -16.58916,8.08878 -22.02576,10.1171 -22.06288,8.23134 z m 19.57636,-9.61873 c 16.49759,-7.90626 29.15408,-15.75924 46.7287,-28.99382 36.97818,-27.84643 83.92702,-72.67763 124.43472,-118.82207 23.74056,-27.0441 26.56827,-30.69138 24.97166,-32.20943 -0.58802,-0.55909 -9.10646,7.57396 -18.92988,18.07344 -80.45972,85.997 -129.14962,127.72752 -177.7124,152.31146 -10.36838,5.24879 -16.20771,9.01022 -16.21171,10.44286 -0.0156,5.59484 3.74685,5.41425 16.71891,-0.80244 z m 9.91532,-59.95478 c 1.04046,-0.6595 1.99506,-3.35444 2.12132,-5.98876 0.22447,-4.68338 0.10405,-4.78965 -5.42729,-4.78965 -5.21429,0 -5.69401,0.32647 -6.13173,4.1729 -0.67345,5.91787 4.64732,9.6419 9.4377,6.60551 z"
       id="path7"
       transform="scale(0.26458333)" /><path
       style="fill:#f9f9f9;stroke-width:1.41421"
       d="m 445.47691,628.08108 c -5.49618,-5.77767 -14.53968,-22.58662 -26.72211,-49.66773 -8.03394,-17.85916 -18.61544,-36.06245 -20.96296,-36.06245 -1.77203,0 -12.98986,10.49355 -25.92965,24.2555 -5.0976,5.42149 -16.62868,19.68277 -25.62463,31.69175 -22.20387,29.64065 -22.98448,30.31978 -34.84988,30.31978 -7.79451,0 -10.62864,-0.69103 -16.15319,-3.9385 -12.20059,-7.17183 -18.6663,-21.98184 -15.26277,-34.96007 2.3267,-8.87205 12.96397,-18.76351 56.26297,-52.31821 l 35.58559,-27.57716 -5.24436,-5.22961 c -6.72468,-6.70578 -21.03708,-15.27649 -25.5105,-15.27649 -1.90409,0 -9.77742,1.94888 -17.4963,4.33083 -7.71887,2.38196 -14.67137,4.11848 -15.45,3.85894 -0.77863,-0.25954 1.78317,-4.12741 5.69289,-8.59525 16.77516,-19.16992 23.0682,-32.09371 26.60264,-54.63282 1.39268,-8.88109 3.21306,-16.37359 4.0453,-16.65 1.99984,-0.66419 28.21878,23.13284 49.1613,44.62017 9.20334,9.44275 17.05119,17.16864 17.43968,17.16864 0.38848,0 6.49963,-4.4835 13.58031,-9.96333 9.18061,-7.10499 13.15774,-9.43787 13.86308,-8.13173 0.54402,1.00738 1.80581,13.73301 2.80399,28.27918 l 1.81488,26.44757 8.11565,9.93254 c 17.90632,21.9151 30.28756,44.52092 31.81465,58.08757 0.67776,6.02131 0.21032,9.53504 -2.0695,15.55635 -5.04572,13.32638 -22.57663,33.94113 -28.86376,33.94113 -0.78322,0 -3.77273,-2.46898 -6.64332,-5.4866 z"
       id="path8"
       transform="scale(0.26458333)" /></g></svg>
