<?xml version="1.0" encoding="UTF-8" standalone="no"?>
<!-- Created with Inkscape (http://www.inkscape.org/) -->

<svg
   width="9.6792202mm"
   height="23.445898mm"
   viewBox="0 0 9.6792203 23.445898"
   version="1.1"
   id="svg1"
   xml:space="preserve"
   inkscape:version="1.3.2 (091e20e, 2023-11-25, custom)"
   sodipodi:docname="drawing.svg"
   xmlns:inkscape="http://www.inkscape.org/namespaces/inkscape"
   xmlns:sodipodi="http://sodipodi.sourceforge.net/DTD/sodipodi-0.dtd"
   xmlns="http://www.w3.org/2000/svg"
   xmlns:svg="http://www.w3.org/2000/svg"><sodipodi:namedview
     id="namedview1"
     pagecolor="#505050"
     bordercolor="#eeeeee"
     borderopacity="1"
     inkscape:showpageshadow="0"
     inkscape:pageopacity="0"
     inkscape:pagecheckerboard="0"
     inkscape:deskcolor="#505050"
     inkscape:document-units="mm"
     inkscape:zoom="5.7941077"
     inkscape:cx="8.4568673"
     inkscape:cy="82.756487"
     inkscape:window-width="1920"
     inkscape:window-height="1009"
     inkscape:window-x="-8"
     inkscape:window-y="-8"
     inkscape:window-maximized="1"
     inkscape:current-layer="layer1" /><defs
     id="defs1" /><g
     inkscape:label="Layer 1"
     inkscape:groupmode="layer"
     id="layer1"
     transform="translate(-99.323063,-136.20387)"><path
       style="fill:#000000;stroke:#ffffff;stroke-width:0.1;stroke-dasharray:none;stroke-opacity:1"
       d="m 103.13876,159.50236 c 0.41379,-1.24826 0.57892,-3.12368 0.35251,-4.00357 -0.0753,-0.29273 -0.23264,-0.67305 -0.34958,-0.84516 -0.20251,-0.29801 -0.21263,-0.37042 -0.21263,-1.52092 0,-0.66441 0.0199,-1.20802 0.0442,-1.20802 0.0243,0 0.28563,0.18978 0.58078,0.42173 l 0.53664,0.42172 0.0456,0.95411 c 0.0299,0.6256 0.0958,1.07072 0.19135,1.29278 0.19271,0.44778 0.12293,1.2174 -0.17471,1.92674 -0.12198,0.29073 -0.21864,0.57622 -0.2148,0.63442 0.004,0.0582 0.0134,0.21091 0.0211,0.33933 0.0155,0.25588 -0.41525,1.20865 -0.69821,1.54451 -0.14736,0.1749 -0.16858,0.18225 -0.1222,0.0423 z m 0.21416,-9.016 c -0.0495,-0.0926 -0.19376,-0.19324 -0.32048,-0.22368 -0.52999,-0.12732 -1.11938,-0.55066 -1.11938,-0.80401 0,-0.0317 0.21907,0.0625 0.48683,0.20933 0.45051,0.24711 0.54732,0.26703 1.29755,0.26703 0.78394,0 0.83427,-0.0118 1.524,-0.35758 0.3923,-0.19667 0.864,-0.48667 1.04822,-0.64444 l 0.33493,-0.28685 -0.58603,-0.0628 c -0.46008,-0.0493 -0.59383,-0.0382 -0.62227,0.0518 -0.0199,0.063 -0.18276,0.2555 -0.36186,0.4278 -0.7001,0.67355 -1.71713,0.6483 -2.44483,-0.0607 l -0.29712,-0.28949 -0.48262,0.12603 c -0.26545,0.0693 -0.79234,0.2586 -1.17088,0.42062 -0.37855,0.16202 -0.739267,0.29459 -0.801617,0.29459 -0.13605,0 -0.4643,-0.39829 -0.4643,-0.56337 0,-0.0813 0.062,-0.10163 0.20252,-0.0664 0.22951,0.0576 0.1858,0.10833 1.062417,-1.23294 0.60314,-0.92283 1.26553,-1.66518 1.15209,-1.29117 -0.0702,0.23143 -0.0404,0.23397 0.35917,0.0307 1.10268,-0.56093 2.48541,-0.70221 3.3198,-0.33921 l 0.46566,0.20259 -0.29633,0.0438 -0.29633,0.0438 0.52689,0.28432 c 0.53125,0.28666 1.13929,0.87726 1.56875,1.52375 0.275,0.41399 0.65598,0.66798 1.11475,0.7432 l 0.33173,0.0544 -0.19294,0.15624 c -0.3383,0.27394 -0.55378,0.1977 -1.29763,-0.45912 -1.03629,-0.91506 -1.34175,-1.13653 -1.97836,-1.43444 -1.03381,-0.48378 -2.40656,-0.41882 -3.40691,0.16121 -0.39092,0.22666 -1.02662,0.76495 -1.02662,0.8693 0,0.0339 0.20556,-0.008 0.45679,-0.0925 0.7097,-0.23959 1.86377,-0.41326 2.6658,-0.40116 l 0.72975,0.011 -1.016,0.11624 c -1.023,0.11705 -1.54889,0.23887 -2.39062,0.55381 -0.5592,0.20922 -0.53045,0.30842 0.0356,0.12296 1.08338,-0.35493 3.04295,-0.48861 4.39853,-0.30007 0.65695,0.0914 0.99671,0.21767 1.37176,0.5099 0.19747,0.15387 0.1969,0.15414 -0.22557,0.1041 -0.35124,-0.0416 -0.46816,-0.0184 -0.68481,0.13587 -0.33478,0.23838 -0.33073,0.34132 0.0139,0.35379 0.22393,0.008 0.19929,0.0227 -0.13231,0.0784 -0.22411,0.0377 -0.50145,0.13002 -0.61631,0.20528 -0.18779,0.12305 -0.19573,0.14994 -0.0788,0.26686 0.0715,0.0715 0.1719,0.20826 0.22307,0.30388 0.0786,0.1469 0.0456,0.13768 -0.21284,-0.0595 l -0.30589,-0.23331 -0.40154,0.17576 c -0.24679,0.10802 -0.39702,0.22629 -0.38979,0.30686 0.0151,0.16787 -0.0876,0.16779 -0.22698,-1.8e-4 -0.1579,-0.19026 -0.72522,-0.13463 -0.69123,0.0678 0.0332,0.19756 -0.04,0.18781 -0.15135,-0.0202 z m 1.3863,-1.55384 c 0.16858,-0.12858 0.3065,-0.26994 0.3065,-0.31413 0,-0.12849 -0.42391,-0.0927 -0.47487,0.0401 -0.0254,0.0662 -0.18211,0.18494 -0.34819,0.26375 -0.24896,0.11814 -0.35751,0.12665 -0.61841,0.0485 -0.17404,-0.0521 -0.36373,-0.15178 -0.42152,-0.22142 -0.0578,-0.0696 -0.20033,-0.12661 -0.31674,-0.12661 -0.18749,0 -0.19839,0.0161 -0.0955,0.14073 0.27807,0.33674 0.60943,0.46196 1.1432,0.43201 0.40834,-0.0229 0.58436,-0.079 0.8255,-0.26291 z m -4.11603,-3.79385 c -0.46884,-0.631 -0.5076,-1.12299 -0.14241,-1.80735 0.38808,-0.72724 0.34567,-1.30261 -0.14664,-1.98958 -0.14481,-0.20208 -0.0762,-0.15387 0.21511,0.15112 0.60452,0.63292 0.66451,0.91363 0.38227,1.78867 -0.24327,0.75421 -0.23199,0.9179 0.0966,1.40217 l 0.22007,0.32429 -0.20716,0.20716 -0.20715,0.20715 z m 6.10597,-0.16097 c -0.2889,-0.39875 -0.30206,-0.44499 -0.23253,-0.81717 0.10539,-0.56409 0.25675,-0.74611 0.83699,-1.0065 0.28225,-0.12667 0.60401,-0.33824 0.71502,-0.47017 0.17542,-0.20849 0.24065,-0.41264 0.41543,-1.30017 0.0183,-0.0931 0.0368,0.0593 0.0411,0.33867 0.0145,0.95032 -0.31738,1.83456 -0.92155,2.45533 -0.24284,0.24952 -0.35466,0.45568 -0.42477,0.78317 -0.0523,0.24448 -0.10152,0.44338 -0.1093,0.44201 -0.008,-0.001 -0.15195,-0.1927 -0.32038,-0.42517 z m -3.71544,-0.0696 c 0,-0.0257 0.14957,-0.35292 0.33237,-0.72719 0.45077,-0.92293 0.61063,-1.42605 0.66011,-2.0775 0.0408,-0.53776 0.0358,-0.55474 -0.22134,-0.74337 -0.32603,-0.23917 -0.33443,-0.44712 -0.0442,-1.09571 0.12039,-0.26909 0.25374,-0.72846 0.29633,-1.02083 0.0428,-0.29401 0.19708,-0.76698 0.34517,-1.05833 0.22033,-0.43347 0.27661,-0.6617 0.31779,-1.28876 0.049,-0.74639 0.0523,-0.75593 0.16199,-0.46567 0.0616,0.16299 0.13292,0.58226 0.15856,0.93172 0.0463,0.63143 0.0447,0.63761 -0.25365,0.99477 -0.24829,0.29718 -0.31011,0.45135 -0.35716,0.8907 -0.0691,0.64546 0.0616,1.41566 0.30801,1.81431 0.17251,0.27912 0.17964,0.36569 0.13345,1.62052 -0.0594,1.61367 -0.10266,1.78929 -0.4866,1.97545 -0.29295,0.14203 -1.35079,0.33773 -1.35079,0.24989 z"
       id="path1" /></g></svg>
