<?xml version="1.0" encoding="UTF-8" standalone="no"?>
<!-- Created with Inkscape (http://www.inkscape.org/) -->

<svg
   width="27.401546mm"
   height="25.63452mm"
   viewBox="0 0 27.401546 25.63452"
   version="1.1"
   id="svg1"
   xml:space="preserve"
   inkscape:version="1.3.2 (091e20e, 2023-11-25, custom)"
   sodipodi:docname="home.svg"
   xmlns:inkscape="http://www.inkscape.org/namespaces/inkscape"
   xmlns:sodipodi="http://sodipodi.sourceforge.net/DTD/sodipodi-0.dtd"
   xmlns="http://www.w3.org/2000/svg"
   xmlns:svg="http://www.w3.org/2000/svg"><sodipodi:namedview
     id="namedview1"
     pagecolor="#505050"
     bordercolor="#eeeeee"
     borderopacity="1"
     inkscape:showpageshadow="0"
     inkscape:pageopacity="0"
     inkscape:pagecheckerboard="0"
     inkscape:deskcolor="#505050"
     inkscape:document-units="mm"
     inkscape:zoom="1.4485269"
     inkscape:cx="152.56879"
     inkscape:cy="251.63495"
     inkscape:window-width="1920"
     inkscape:window-height="1009"
     inkscape:window-x="-8"
     inkscape:window-y="-8"
     inkscape:window-maximized="1"
     inkscape:current-layer="layer1" /><defs
     id="defs1" /><g
     inkscape:label="Layer 1"
     inkscape:groupmode="layer"
     id="layer1"
     transform="translate(-99.166716,-137.18734)"><path
       style="fill:#ff0000"
       d="m 104.42848,162.69499 c -4.820643,-1.00396 -6.886873,-6.67039 -3.80839,-10.44414 1.25482,-1.53822 3.31289,-2.65211 5.30656,-2.87209 1.26756,-0.13986 2.13995,-0.0248 4.07813,0.53796 2.65352,0.77043 5.02053,-0.46569 6.57115,-3.43164 1.87197,-3.58058 -0.7616,-7.61513 -4.58369,-7.02211 -4.16909,0.64685 -4.72767,6.69914 -0.6211,6.72957 1.64711,0.0122 2.76674,-2.0284 1.65699,-3.01996 -0.63004,-0.56294 -1.28069,-0.2081 -1.10827,0.60439 0.22299,1.05074 -1.1158,1.17017 -1.63668,0.146 -0.85867,-1.68837 1.1115,-3.34552 3.09008,-2.59913 3.25507,1.22793 1.88911,6.95825 -1.66345,6.97833 -6.30722,0.0357 -7.1911,-8.53341 -1.10067,-10.67082 7.47474,-2.62321 11.72434,6.98309 5.71699,12.92337 -2.08068,2.05745 -2.36651,3.82402 -1.08329,6.69532 1.93543,4.33064 7.39125,4.59313 8.96109,0.43114 1.48914,-3.94801 -3.82909,-7.3953 -5.65414,-3.66503 -0.6987,1.42808 0.69535,3.38742 1.9757,2.77686 0.62495,-0.29802 0.65872,-1.07585 0.0521,-1.19977 -1.17164,-0.23934 -0.68746,-1.5307 0.56727,-1.51294 1.78101,0.0252 2.34163,2.30106 0.92614,3.75963 -2.43736,2.51153 -7.12775,-1.32469 -5.54218,-4.53288 3.23878,-6.55324 12.52721,-1.03405 9.40846,5.59051 -2.96931,6.30713 -11.68893,4.57656 -13.4792,-2.67519 -0.83455,-3.38043 -2.66157,-4.69152 -6.32857,-4.54146 -4.32125,0.17684 -6.421413,4.81005 -3.52299,7.77215 2.90062,2.96436 7.86123,0.0837 5.73594,-3.3309 -0.84036,-1.35016 -3.3618,-1.00769 -3.36331,0.45682 -7.5e-4,0.72088 0.59769,0.97452 1.09317,0.46332 0.87894,-0.90684 1.6063,0.48209 0.80359,1.53451 -0.89394,1.17201 -2.90644,0.57811 -3.5035,-1.03392 -1.36689,-3.69053 5.06235,-5.96571 6.85014,-2.42412 2.07057,4.10179 -1.30201,8.51173 -5.79405,7.57622 z"
       id="path1" /></g></svg>
